<?xml version="1.0" encoding="UTF-8"?>
<svg version="1.1" xmlns="http://www.w3.org/2000/svg" width="2000" height="2000">
<path d="M0 0 C0.88522339 0.08485657 1.77044678 0.16971313 2.68249512 0.25714111 C16.48870626 1.58249553 30.25009085 3.18346365 44 5 C44.91465027 5.12032593 45.82930054 5.24065186 46.77166748 5.36462402 C141.1747057 17.87604469 233.40479779 44.76176246 338 92 C339.01126953 92.47405273 340.02253906 92.94810547 341.06445312 93.43652344 C371.96908985 107.9758827 401.87334787 124.17036303 431 142 C431.90766113 142.55349121 432.81532227 143.10698242 433.75048828 143.67724609 C454.76394196 156.52460716 475.36841871 170.1673425 495.24755859 184.71875 C497.32284782 186.23604143 499.40603492 187.74227127 501.48828125 189.25 C510.61716375 195.88935479 519.51503475 202.73292701 528.2265625 209.91015625 C531.83211503 212.87840101 535.5008958 215.75849491 539.1875 218.625 C545.37464808 223.45356908 551.38391725 228.46709385 557.33935547 233.57763672 C559.05623967 235.04817 560.77948682 236.51096923 562.50390625 237.97265625 C569.26520386 243.71730107 575.888404 249.57559985 582.37890625 255.625 C584.97570971 258.04142167 584.97570971 258.04142167 587.83984375 260.1875 C588.90912109 261.0846875 588.90912109 261.0846875 590 262 C590 262.66 590 263.32 590 264 C590.59264648 264.27118652 591.18529297 264.54237305 591.79589844 264.82177734 C593.96973469 265.9838214 595.47795122 267.16819643 597.265625 268.8515625 C597.89678223 269.44388672 598.52793945 270.03621094 599.17822266 270.64648438 C599.86190918 271.29939453 600.5455957 271.95230469 601.25 272.625 C601.97364746 273.31142578 602.69729492 273.99785156 603.44287109 274.70507812 C610.25895567 281.21333953 616.95147498 287.84620095 623.625 294.5 C624.13937622 295.01169739 624.65375244 295.52339478 625.18371582 296.05059814 C630.43203594 301.27816646 635.59315382 306.537343 640.41259766 312.16748047 C643.13359167 315.30863413 646.01665033 318.29686888 648.875 321.3125 C653.7652533 326.50758684 658.40429718 331.81352758 662.859375 337.390625 C665.15120465 340.18431516 667.55231812 342.84208778 670 345.5 C674.89374231 350.82974393 679.46107316 356.36770251 684 362 C684.99768805 363.21827563 685.99644911 364.43567307 686.99609375 365.65234375 C698.93483963 380.20740283 710.26690902 395.16793777 721.20410156 410.48852539 C722.55584415 412.37887014 723.91286699 414.26544078 725.27246094 416.15014648 C731.3194444 424.54645841 737.15327114 433.06678403 742.875 441.6875 C743.30887024 442.3401886 743.74274048 442.9928772 744.1897583 443.66534424 C759.69168904 466.99671945 774.19839025 490.84558616 787.60839844 515.44775391 C788.60592829 517.27725866 789.60698991 519.10483943 790.61035156 520.93115234 C832.92231864 598.06802782 863.7325016 680.55816158 906.3125 899.4375 C906.42567566 900.56612961 906.42567566 900.56612961 906.5411377 901.71755981 C907.1083218 907.47266524 907.5730149 913.2329094 908 919 C908.08613556 920.14554352 908.17227112 921.29108704 908.26101685 922.47134399 C909.98521398 946.1289282 910.36470222 969.7259381 910.31805801 993.44077301 C910.31240997 996.35901444 910.30959445 999.27725004 910.30697632 1002.19549561 C910.27154277 1029.36799739 909.98774631 1056.4044771 907.25323486 1083.46270752 C906.98427066 1086.15760046 906.73086938 1088.85365953 906.47998047 1091.55029297 C903.82341495 1119.88408552 899.97679723 1147.98154748 895 1176 C894.85302673 1176.82810181 894.70605347 1177.65620361 894.55462646 1178.50939941 C887.08997182 1220.26050648 876.76415374 1261.62338225 863.66027832 1301.95983887 C862.99992665 1304.00022664 862.34784747 1306.04308168 861.69824219 1308.08691406 C851.20949603 1341.04125897 838.64460577 1373.16611509 824.47607422 1404.70556641 C822.86145625 1408.30921426 821.2764528 1411.92482877 819.70532227 1415.54760742 C817.03666319 1421.60561429 814.2618454 1427.58892532 811.28125 1433.5 C810.93635529 1434.18650635 810.59146057 1434.8730127 810.2361145 1435.58032227 C809.15940923 1437.72122893 808.08000764 1439.86075764 807 1442 C806.66425964 1442.66628418 806.32851929 1443.33256836 805.98260498 1444.01904297 C797.02346083 1461.78920998 787.7937657 1479.27781502 777.56835938 1496.35986328 C775.58422279 1499.69990889 773.65586886 1503.0701333 771.72973633 1506.44384766 C757.01514215 1532.1711846 740.39371383 1557.00808063 723 1581 C722.45956055 1581.74620605 721.91912109 1582.49241211 721.36230469 1583.26123047 C710.02965277 1598.86542042 698.29600327 1614.14232939 686 1629 C684.56231259 1630.77068118 683.12481798 1632.54151892 681.6875 1634.3125 C674.10061655 1643.58094401 666.29650397 1652.66850861 658.23046875 1661.5234375 C656.35684751 1663.60378052 654.51298026 1665.7040625 652.67578125 1667.81640625 C649.19217228 1671.80404452 645.62317799 1675.70158452 642 1679.5625 C641.3620752 1680.2428833 640.72415039 1680.9232666 640.06689453 1681.62426758 C633.75095545 1688.32404399 627.25777578 1694.84037434 620.70654297 1701.30932617 C616.7763229 1705.20299913 612.87771984 1709.12806669 608.98046875 1713.0546875 C607.54165542 1714.50088274 606.10235519 1715.94659145 604.6628418 1717.39208984 C603.68374233 1718.376212 602.70554305 1719.36123062 601.72827148 1720.34716797 C596.55849307 1725.56137076 591.36285497 1730.68959548 585.78100586 1735.46630859 C583.00733785 1737.85481887 580.35673407 1740.37127697 577.6875 1742.875 C572.91589105 1747.31465293 568.0183201 1751.51659141 562.93359375 1755.59765625 C559.45096441 1758.4496097 556.0722482 1761.40827123 552.6875 1764.375 C546.77470633 1769.53952821 540.7178596 1774.45972409 534.51171875 1779.265625 C531.52446683 1781.57951755 528.58345821 1783.94573109 525.64892578 1786.32592773 C516.33127397 1793.86849379 506.71161179 1800.97493019 497 1808 C496.33371582 1808.4837207 495.66743164 1808.96744141 494.98095703 1809.46582031 C469.65167962 1827.7990234 443.30812017 1845.07213674 416.23388672 1860.70947266 C414.71063244 1861.58946415 413.18888179 1862.47206231 411.66845703 1863.35693359 C390.58728747 1875.62195378 369.18727952 1887.23327557 347.1015625 1897.58984375 C343.36363171 1899.34298982 339.66848944 1901.15913546 335.99462891 1903.04223633 C255.65412365 1944.1986482 164.38260645 1969.84723164 -24.37469482 1995.83601379 C-26.45274387 1995.96581637 -28.53013365 1996.10616903 -30.60723877 1996.25028992 C-41.78309333 1996.99895551 -52.91884848 1997.16340961 -64.1171875 1997.16796875 C-66.02686587 1997.17119887 -67.93654401 1997.1745641 -69.84622192 1997.17805481 C-73.83482432 1997.18399979 -77.82340522 1997.18589992 -81.81201172 1997.18530273 C-85.82182387 1997.18522212 -89.83152021 1997.19206881 -93.84130859 1997.20581055 C-118.96880203 1997.2905315 -143.93726148 1996.88032715 -169 1995 C-170.48285492 1994.88998154 -170.48285492 1994.88998154 -171.9956665 1994.77774048 C-177.38079981 1994.3662096 -182.7533709 1993.87211628 -188.125 1993.3125 C-188.91964661 1993.23140991 -189.71429321 1993.15031982 -190.53302002 1993.06677246 C-241.73439202 1987.79350432 -292.11336523 1978.57944166 -342 1966 C-343.07749512 1965.73053558 -343.07749512 1965.73053558 -344.17675781 1965.45562744 C-392.24389677 1953.43178065 -439.66237996 1936.9682678 -485 1917 C-486.71098877 1916.25049072 -486.71098877 1916.25049072 -488.45654297 1915.48583984 C-523.5905519 1900.05916096 -558.15329712 1883.36256187 -591.13427734 1863.70263672 C-593.95244226 1862.02825589 -596.78075652 1860.3726081 -599.61328125 1858.72265625 C-609.09764183 1853.18655898 -618.4792532 1847.51268773 -627.75 1841.625 C-629.07088623 1840.78678711 -629.07088623 1840.78678711 -630.41845703 1839.93164062 C-635.63229325 1836.59399171 -640.73254849 1833.12417412 -645.78955078 1829.55371094 C-648.34804036 1827.75536461 -650.94648103 1826.02589258 -653.5625 1824.3125 C-667.05618216 1815.33387943 -680.05758314 1805.76577042 -692.91015625 1795.89453125 C-696.74785368 1792.94838372 -700.61450771 1790.04593476 -704.50292969 1787.16723633 C-711.20494549 1782.20135396 -717.65788034 1777.03419319 -723.9765625 1771.58984375 C-726.84284949 1769.13461342 -729.75225284 1766.74704147 -732.6875 1764.375 C-737.13903808 1760.75165505 -741.42382455 1756.98036128 -745.66796875 1753.1171875 C-747.75823889 1751.21948831 -749.86986115 1749.35266585 -752 1747.5 C-763.3464003 1737.60304005 -774.61534801 1727.53051617 -785.17578125 1716.79296875 C-787.05537183 1714.94557672 -789.00277139 1713.21908459 -791 1711.5 C-796.42403847 1706.81898049 -801.48126062 1701.8334305 -806.125 1696.375 C-810.24827183 1691.54681285 -814.81837239 1687.15974595 -819.37744141 1682.74755859 C-819.97347168 1682.16312988 -820.56950195 1681.57870117 -821.18359375 1680.9765625 C-821.72556396 1680.45143066 -822.26753418 1679.92629883 -822.82592773 1679.38525391 C-824 1678 -824 1678 -824 1676 C-824.66 1676 -825.32 1676 -826 1676 C-827.41015625 1674.6015625 -827.41015625 1674.6015625 -829.0625 1672.625 C-831.77923786 1669.42453655 -834.54335219 1666.28693937 -837.375 1663.1875 C-841.32687937 1658.81364029 -845.05275365 1654.29027878 -848.7578125 1649.70703125 C-850.89483782 1647.12696409 -853.10735745 1644.65285515 -855.375 1642.1875 C-859.35261685 1637.81762681 -863.00876594 1633.26390464 -866.62792969 1628.59887695 C-870.22465939 1623.96606507 -873.90897488 1619.412485 -877.625 1614.875 C-882.92698239 1608.37629326 -888.06069525 1601.78008789 -893 1595 C-893.47904785 1594.34306152 -893.9580957 1593.68612305 -894.45166016 1593.00927734 C-897.77447145 1588.44468045 -901.07703795 1583.865882 -904.36669922 1579.27734375 C-905.41349065 1577.81778165 -906.46185156 1576.35934314 -907.51220703 1574.90234375 C-916.42132082 1562.53502832 -924.75907132 1549.81997355 -933 1537 C-933.53125488 1536.17741699 -934.06250977 1535.35483398 -934.60986328 1534.50732422 C-943.16238934 1521.24829716 -951.15207956 1507.68584791 -959 1494 C-959.82274414 1492.57518311 -959.82274414 1492.57518311 -960.66210938 1491.12158203 C-978.21359026 1460.66860937 -993.97903426 1429.22519315 -1008 1397 C-1008.27954529 1396.35969849 -1008.55909058 1395.71939697 -1008.84710693 1395.05969238 C-1041.63405186 1319.90145091 -1064.78542363 1240.33662368 -1085.8125 1098.6875 C-1085.96168884 1097.26612732 -1085.96168884 1097.26612732 -1086.1138916 1095.81604004 C-1089.32674456 1064.78375594 -1090.33600378 1033.8841527 -1090.26074219 1002.70507812 C-1090.24934871 997.95277531 -1090.25613672 993.20069665 -1090.26762104 988.44840145 C-1090.31519864 965.22567101 -1089.75367236 942.15885093 -1088 919 C-1087.926745 918.01279968 -1087.85348999 917.02559937 -1087.77801514 916.00848389 C-1087.35897543 910.47733506 -1086.86595204 904.95672881 -1086.3125 899.4375 C-1086.23140991 898.61667938 -1086.15031982 897.79585876 -1086.06677246 896.95016479 C-1079.69361292 833.18329633 -1067.07040476 770.45837691 -1049 709 C-1048.70122955 707.98347351 -1048.70122955 707.98347351 -1048.39642334 706.94641113 C-1026.39669955 632.36871698 -994.81236931 559.2936625 -950.87158203 486.09179688 C-949.09591242 483.15844442 -947.34010648 480.21418768 -945.58984375 477.265625 C-932.43210344 455.2154917 -918.09023171 433.77435384 -903 413 C-902.46246094 412.25814453 -901.92492187 411.51628906 -901.37109375 410.75195312 C-885.86240993 389.39660148 -869.53416392 368.6860719 -852.38574219 348.62402344 C-850.94270908 346.93285779 -849.50625183 345.23625381 -848.0703125 343.5390625 C-841.70216073 336.03344424 -835.14742473 328.73826368 -828.43066406 321.54394531 C-826.19914463 319.13573219 -824.01136461 316.68801605 -821.8125 314.25 C-815.09970646 306.91002576 -808.02205743 299.93315572 -800.95361328 292.93774414 C-796.86978678 288.88709044 -792.8143984 284.80833983 -788.76171875 280.7265625 C-787.2534077 279.21086753 -785.7446095 277.69565937 -784.2355957 276.18066406 C-783.2079943 275.1480389 -782.18129286 274.11451732 -781.15551758 273.08007812 C-764.81385546 256.60461849 -764.81385546 256.60461849 -760 255 C-760 254.34 -760 253.68 -760 253 C-758.7421875 251.6953125 -758.7421875 251.6953125 -756.875 250.125 C-755.77671875 249.19107422 -755.77671875 249.19107422 -754.65625 248.23828125 C-753.7796875 247.49964844 -752.903125 246.76101562 -752 246 C-750.37833058 244.61214545 -748.75973766 243.22074994 -747.14111328 241.8293457 C-745.33336544 240.27674171 -743.52236506 238.72799599 -741.7109375 237.1796875 C-739.2917862 235.11029302 -736.88061267 233.03222693 -734.4765625 230.9453125 C-727.11976817 224.57087023 -719.61658912 218.44355205 -711.91748047 212.48779297 C-709.86710005 210.89688155 -707.82563094 209.29499999 -705.78515625 207.69140625 C-689.91341386 195.2402678 -673.73626733 183.26421818 -657 172 C-656.01467285 171.33452148 -655.0293457 170.66904297 -654.01416016 169.98339844 C-639.20609037 159.99363486 -624.28268669 150.25398393 -609 141 C-608.15888672 140.48743652 -607.31777344 139.97487305 -606.45117188 139.44677734 C-595.63930435 132.85945531 -584.74014983 126.47109194 -573.61669922 120.42382812 C-571.75950286 119.41326933 -569.90458825 118.39851211 -568.05126953 117.38085938 C-519.06328363 90.507967 -467.88172277 68.05728875 -415 50 C-413.91685516 49.63004913 -413.91685516 49.63004913 -412.81182861 49.25262451 C-352.0889073 28.57168847 -289.51465452 13.95740191 -226 5 C-224.88803253 4.84144531 -224.88803253 4.84144531 -223.75360107 4.6796875 C-150.50681122 -5.73019809 -73.66037518 -7.26034344 0 0 Z M-65 48 C-65 340.71 -65 633.42 -65 935 C-60.86161491 931.45281278 -56.96728139 928.09224959 -53.14874035 924.27293885 C-52.24285722 923.36930301 -51.33697408 922.46566716 -50.40363994 921.53464842 C-49.41580831 920.54425179 -48.42802269 919.55380927 -47.44027805 918.56332588 C-46.37326122 917.4970495 -45.30602495 916.43099268 -44.23859027 915.3651346 C-41.30577584 912.43538258 -38.37608283 909.50252654 -35.44688902 906.56915521 C-32.25975151 903.37857849 -29.06970688 900.19091062 -25.88002962 897.0028733 C-20.29018625 891.41510276 -14.70220262 885.82547781 -9.11543083 880.23463631 C-0.80809411 871.92126487 7.50210774 863.61076191 15.81290118 855.30084629 C29.79285404 841.32220745 43.77047769 827.34124178 57.74677849 813.35895157 C71.58642567 799.51338873 85.42710519 785.6688592 99.26916695 771.8257103 C100.12960712 770.96520138 100.99004729 770.10469247 101.87656141 769.21810753 C106.2462519 764.84807871 110.61596087 760.47806835 114.98567695 756.10806511 C145.94175181 725.14988947 176.89550721 694.18939566 207.84790039 663.22753906 C237.91899227 633.14726383 267.99113358 603.06803837 298.06469727 572.99023438 C298.9915853 572.06321481 299.91847334 571.13619525 300.8734489 570.18108418 C310.18158346 560.8716311 319.48973938 551.56219937 328.79791094 542.25278328 C347.75997471 523.28818325 366.72189598 504.32344073 385.68373108 485.35861206 C386.55557867 484.48662718 387.42742626 483.6146423 388.32569348 482.71623363 C446.55284958 424.47987582 504.77668352 366.24019655 563 308 C562.22889893 307.22962402 561.45779785 306.45924805 560.66333008 305.66552734 C558.89895103 303.89969267 557.13999303 302.12842343 555.38671875 300.3515625 C550.0984136 295.00968552 544.73821543 289.85921169 539 285 C537.96163952 284.11007468 536.92393631 283.21938215 535.88671875 282.328125 C533.49753761 280.27541484 531.10528366 278.22637016 528.7109375 276.1796875 C526.2917862 274.11029302 523.88061267 272.03222693 521.4765625 269.9453125 C514.12126865 263.57217036 506.61962822 257.44643251 498.921875 251.4921875 C496.85736141 249.88925215 494.80317524 248.27367942 492.75 246.65625 C482.36020367 238.48974707 471.77971095 230.64313954 461 223 C460.20335937 222.4328125 459.40671875 221.865625 458.5859375 221.28125 C446.26738945 212.52139361 433.76202809 204.10016774 421 196 C420.1745166 195.47583496 419.3490332 194.95166992 418.49853516 194.41162109 C342.8890855 146.59868182 260.23213465 108.70301407 -31.875 48.75 C-33.1441626 48.66975586 -34.4133252 48.58951172 -35.72094727 48.50683594 C-45.52386204 47.95186874 -55.13790635 48 -65 48 Z M-149.125 48.75 C-149.86399536 48.79323395 -150.60299072 48.8364679 -151.36437988 48.88101196 C-229.88663132 53.56780755 -308.27891722 68.41369128 -383 93 C-384.0945047 93.35901398 -384.0945047 93.35901398 -385.21112061 93.72528076 C-416.1464827 103.88988879 -446.24245619 115.79535151 -476 129 C-477.01416992 129.44778809 -478.02833984 129.89557617 -479.07324219 130.35693359 C-505.94245711 142.26498437 -532.45229119 155.4675304 -558 170 C-558.94133789 170.53512207 -559.88267578 171.07024414 -560.85253906 171.62158203 C-592.38833646 189.63091944 -622.80486511 209.40172458 -652 231 C-652.79809082 231.58700684 -653.59618164 232.17401367 -654.41845703 232.77880859 C-665.6442499 241.04552852 -676.55030478 249.6057314 -687.24609375 258.54589844 C-689.50970127 260.42257528 -691.81352505 262.2452549 -694.125 264.0625 C-704.44226794 272.26701683 -714.24331529 281.14368049 -724 290 C-730.31020869 295.69290567 -736.64036322 301.36235097 -743 307 C-737.87225042 313.20212024 -732.27545417 318.86449842 -726.58173656 324.54410458 C-725.51746877 325.60941657 -724.45341998 326.6749474 -723.38956943 327.74067608 C-720.46538416 330.66875285 -717.53809834 333.59371256 -714.61029578 336.51817178 C-711.42574726 339.70018333 -708.24409862 342.88509224 -705.06207877 346.06963211 C-699.48485595 351.65046765 -693.90577358 357.22943879 -688.32546997 362.80719376 C-680.02773818 371.10114606 -671.73286275 379.39795064 -663.43855004 387.695322 C-648.62728564 402.51185485 -633.81315806 417.32552234 -618.99781569 432.13797743 C-606.03656003 445.09671946 -593.07623182 458.05638815 -580.11683083 471.01698494 C-579.25785338 471.87603877 -578.39887594 472.73509259 -577.51386888 473.62017835 C-574.02723639 477.10712217 -570.54060744 480.59406952 -567.05398431 484.08102269 C-534.34062333 516.79744342 -501.62434531 549.51094573 -468.90676409 582.22314601 C-439.81486732 611.31029455 -410.72556041 640.40003075 -381.63842773 669.49194336 C-348.97772786 702.15799244 -316.31542 734.82243231 -283.65049869 767.48426014 C-280.17169272 770.96274538 -276.6928907 774.44123456 -273.21409035 777.91972542 C-272.35748347 778.77625321 -271.5008766 779.63278101 -270.61831194 780.51526419 C-257.65912175 793.47331492 -244.70116969 806.4326029 -231.74381065 819.39248466 C-217.02156331 834.11758402 -202.29754513 848.84091004 -187.57115164 863.56186294 C-179.3202613 871.80980592 -171.07076498 880.05913753 -162.8232275 888.31043325 C-157.32510515 893.8107856 -151.82518969 899.30934049 -146.32376556 904.80639042 C-143.18217708 907.94558337 -140.04141065 911.08558759 -136.90280195 914.22776001 C-134.05436843 917.07939506 -131.20369369 919.92876842 -128.35111976 922.77626154 C-127.31948452 923.80687961 -126.288708 924.83835804 -125.25884259 925.87074465 C-123.87243106 927.2603123 -122.48269792 928.6465636 -121.09275264 930.03259653 C-120.32058716 930.80469425 -119.54842168 931.57679197 -118.75285725 932.37228658 C-117.27654681 934.11341077 -117.27654681 934.11341077 -116 934 C-116 641.62 -116 349.24 -116 48 C-127.09496825 48 -138.06978768 48.09616461 -149.125 48.75 Z M-780 344 C-781.82518951 345.89233695 -783.6072448 347.80497763 -785.375 349.75 C-785.91447266 350.33982666 -786.45394531 350.92965332 -787.00976562 351.53735352 C-788.13082148 352.76313959 -789.25092638 353.98979599 -790.37011719 355.21728516 C-791.84670988 356.83233607 -793.33105578 358.43960291 -794.8203125 360.04296875 C-801.23339452 366.97021916 -807.42316114 374.06432768 -813.52685547 381.26513672 C-814.95156064 382.94295491 -816.38299825 384.61477151 -817.81640625 386.28515625 C-823.90304365 393.39719527 -829.7538947 400.66640201 -835.49169922 408.06201172 C-837.1027558 410.13202906 -838.72451395 412.1933542 -840.34765625 414.25390625 C-848.5120459 424.64318611 -856.3561467 435.22293712 -864 446 C-864.8348291 447.17103271 -864.8348291 447.17103271 -865.68652344 448.36572266 C-891.62499324 484.78759569 -914.77749123 523.1248364 -935 563 C-935.36609375 563.71704102 -935.7321875 564.43408203 -936.109375 565.17285156 C-938.04258411 568.96063726 -939.94157428 572.76382304 -941.81396484 576.58203125 C-942.70748124 578.40364228 -943.60418686 580.22368948 -944.50244141 582.04296875 C-953.25095064 599.79016343 -961.52335935 617.67165602 -969 636 C-969.40125092 636.98332306 -969.40125092 636.98332306 -969.81060791 637.98651123 C-1001.50366578 715.88256101 -1023.03195232 797.66057603 -1037.75 931.5625 C-1037.81520844 932.44353394 -1037.88041687 933.32456787 -1037.94760132 934.2322998 C-1038.13500956 936.80148879 -1038.31145354 939.3712052 -1038.484375 941.94140625 C-1038.53727188 942.6612117 -1038.59016876 943.38101715 -1038.64466858 944.12263489 C-1039.23894732 953.43249598 -1039 962.62411553 -1039 972 C-746.29 972 -453.58 972 -152 972 C-155.54672823 967.8621504 -158.90752589 963.96745933 -162.72591048 960.14874035 C-163.6292901 959.24285722 -164.53266972 958.33697408 -165.46342447 957.40363994 C-166.45353231 956.41580827 -167.4436861 955.42802265 -168.43388081 954.44027805 C-169.49985403 953.37326063 -170.56560825 952.30602438 -171.63116422 951.23859027 C-174.56008464 948.30577828 -177.4921057 945.37608343 -180.42464343 942.44688902 C-183.61432495 939.25974443 -186.80110663 936.06970251 -189.98825949 932.88002962 C-195.57449468 927.2901817 -201.16258946 921.70219818 -206.75190544 916.11543083 C-215.06303848 907.80807726 -223.37131518 899.49787144 -231.67902914 891.18709882 C-246.51422175 876.34663774 -261.35227757 861.50904203 -276.19154816 846.67265872 C-289.1737432 833.6929773 -302.1550108 820.71236923 -315.13535118 807.73083305 C-315.99571497 806.87039288 -316.85607876 806.00995271 -317.74251417 805.12343859 C-321.23477361 801.63086783 -324.72702951 798.13829353 -328.21927959 794.64571341 C-360.98547791 761.87645534 -393.75459327 729.11011569 -426.52501183 696.34507807 C-455.66390126 667.21093687 -484.80020083 638.074208 -513.93432617 608.93530273 C-546.64776376 576.21651594 -579.36280933 543.49933835 -612.08046836 510.78477281 C-615.56489131 507.30067059 -619.04931031 503.81656443 -622.53372765 500.33245659 C-623.39171767 499.47454564 -624.24970769 498.6166347 -625.13369741 497.73272645 C-638.11381918 484.75374415 -651.09270282 471.77352459 -664.07099342 458.79271126 C-678.81702934 444.04382333 -693.56483609 429.29670874 -708.31501815 414.55196727 C-716.5792392 406.29069358 -724.84206624 398.02803126 -733.10293442 389.76340483 C-738.60994264 384.2541666 -744.11874398 378.74672583 -749.62905399 373.24079003 C-752.77571768 370.09652188 -755.92155932 366.95144244 -759.06524322 363.80419482 C-761.91828189 360.94795463 -764.77356177 358.09397611 -767.63074084 355.24187786 C-768.66404313 354.20959274 -769.69648669 353.17644726 -770.72801915 352.14239361 C-772.11667276 350.75058389 -773.50864797 349.36209051 -774.90083534 347.9738155 C-776.06095532 346.81379716 -776.06095532 346.81379716 -777.24451207 345.6303441 C-778.72282705 343.88658221 -778.72282705 343.88658221 -780 344 Z M594.85545915 348.01919168 C593.95445928 348.91768804 593.0534594 349.8161844 592.12515649 350.74190792 C591.11168082 351.75766096 590.09825063 352.77345937 589.0848608 353.78929806 C588.01460506 354.85851211 586.94413017 355.92750684 585.8734543 356.99630019 C582.90365701 359.9621699 579.937022 362.93118582 576.97085093 365.90068151 C573.75405457 369.11999758 570.5343816 372.33643443 567.31506211 375.55322701 C561.6638571 381.2008065 556.01453315 386.85026228 550.36641121 392.50092506 C541.96772836 400.90337592 533.56620769 409.3029849 525.16410854 417.70201942 C510.16183249 432.69901755 495.16243317 447.69889028 480.16423769 462.69996919 C467.03941912 475.82729878 453.91367711 488.95370415 440.78700447 502.07917976 C439.91783378 502.94827407 439.04866309 503.81736838 438.15315389 504.71279887 C434.62531355 508.2403279 431.09746966 511.76785339 427.56961995 515.29537305 C394.91802335 547.94395125 362.2692273 580.59532878 329.6217917 613.24806779 C299.6931172 643.18159888 269.76190281 673.11258785 239.82836914 703.04125977 C206.76463168 736.09964442 173.70250711 769.15964086 140.64299256 802.22224861 C137.12172482 805.74383709 133.60045313 809.26542162 130.07917976 812.78700447 C129.21209091 813.6541724 128.34500206 814.52134033 127.45163779 815.41478607 C114.33120752 828.53635602 101.20953956 841.65668741 88.08727837 854.77642632 C73.17355476 869.68729766 58.26160494 884.59994031 43.35202771 899.51495772 C34.99746982 907.87246304 26.64152316 916.22857425 18.28361255 924.58272671 C12.71198097 930.15212825 7.14214689 935.72332298 1.57381773 941.29602629 C-1.60619241 944.478432 -4.78701396 947.66001565 -7.97000355 950.83944159 C-10.85874945 953.72498597 -13.7452338 956.61277169 -16.62983778 959.50245648 C-17.67390384 960.54753972 -18.71883028 961.59176421 -19.76466488 962.63507764 C-21.17232969 964.03958639 -22.5766782 965.44741665 -23.98080832 966.85545915 C-24.76298339 967.63770198 -25.54515846 968.41994481 -26.35103581 969.22589197 C-28.11346682 970.71839565 -28.11346682 970.71839565 -28 972 C264.71 972 557.42 972 859 972 C859.09115142 957.50320803 859.09115142 957.50320803 858.51953125 943.06640625 C858.4667955 942.23692474 858.41405975 941.40744324 858.35972595 940.55282593 C858.18620409 937.888694 858.00106713 935.22560713 857.8125 932.5625 C857.74720093 931.62479767 857.68190186 930.68709534 857.61462402 929.72097778 C851.40653893 841.72238591 833.06880183 755.57156625 763 579 C762.65340332 578.29166016 762.30680664 577.58332031 761.94970703 576.85351562 C759.67742802 572.21276407 757.34827631 567.60269447 755 563 C754.45972168 561.9373291 753.91944336 560.8746582 753.36279297 559.77978516 C746.34704998 545.99369556 739.31478415 532.26026524 731.24658203 519.05175781 C729.88599797 516.81236328 728.54904525 514.55989483 727.21484375 512.3046875 C712.51579469 487.50922299 696.68119437 463.5578371 679.67236328 440.29003906 C677.95196176 437.93421916 676.23962134 435.57266674 674.52734375 433.2109375 C667.42682373 423.45522649 660.06616762 413.98157721 652.38085938 404.68066406 C650.51780455 402.4131129 648.69562664 400.11418653 646.875 397.8125 C642.51439494 392.34805976 637.99097289 387.02454762 633.453125 381.70751953 C632.01462545 380.01718589 630.58474563 378.31988508 629.15625 376.62109375 C623.03655268 369.37470997 616.70309723 362.375013 610.16308594 355.50463867 C607.3859097 352.58143287 604.67298425 349.65459574 602.12109375 346.53125 C601.42113281 345.6959375 600.72117187 344.860625 600 344 C597.95877033 344 596.16833607 346.70642849 594.85545915 348.01919168 Z M-1039 1022 C-1039.10154958 1037.18979491 -1039.10154958 1037.18979491 -1038.484375 1052.3125 C-1038.42885971 1053.16262161 -1038.37334442 1054.01274323 -1038.31614685 1054.8886261 C-1038.13601537 1057.59309007 -1037.94442416 1060.29652835 -1037.75 1063 C-1037.68342194 1063.94676605 -1037.61684387 1064.8935321 -1037.54824829 1065.86898804 C-1031.88111847 1145.86909424 -1015.93331775 1224.78911271 -913 1472 C-912.36030273 1473.1034375 -911.72060547 1474.206875 -911.06152344 1475.34375 C-902.06390951 1490.82241063 -892.56681984 1505.92248181 -882.625 1520.8125 C-882.1329306 1521.54987396 -881.64086121 1522.28724792 -881.13388062 1523.04696655 C-871.45023649 1537.52798264 -861.57065149 1551.88334886 -850.9375 1565.6875 C-850.26195068 1566.56905762 -849.58640137 1567.45061523 -848.89038086 1568.35888672 C-837.42077426 1583.3000427 -825.65561896 1597.96414771 -813.44140625 1612.30419922 C-811.99800384 1614.00234846 -810.56118577 1615.70590193 -809.125 1617.41015625 C-803.23249341 1624.37483321 -797.17031624 1631.14005824 -790.89526367 1637.76318359 C-787.13444796 1641.73913888 -783.53080541 1645.81884985 -780 1650 C-773.79205188 1644.86780167 -768.12505679 1639.26499904 -762.44027805 1633.56611919 C-761.37326063 1632.50014597 -760.30602438 1631.43439175 -759.23859027 1630.36883578 C-756.30577828 1627.43991536 -753.37608343 1624.5078943 -750.44688902 1621.57535657 C-747.25974443 1618.38567505 -744.06970251 1615.19889337 -740.88002962 1612.01174051 C-735.2901817 1606.42550532 -729.70219818 1600.83741054 -724.11543083 1595.24809456 C-715.80807726 1586.93696152 -707.49787144 1578.62868482 -699.18709882 1570.32097086 C-684.34663774 1555.48577825 -669.50904203 1540.64772243 -654.67265872 1525.80845184 C-641.6929773 1512.8262568 -628.71236923 1499.8449892 -615.73083305 1486.86464882 C-614.87039288 1486.00428503 -614.00995271 1485.14392124 -613.12343859 1484.25748583 C-609.63086783 1480.76522639 -606.13829353 1477.27297049 -602.64571341 1473.78072041 C-569.87645534 1441.01452209 -537.11011569 1408.24540673 -504.34507807 1375.47498817 C-475.21093687 1346.33609874 -446.074208 1317.19979917 -416.93530273 1288.06567383 C-384.21651594 1255.35223624 -351.49933835 1222.63719067 -318.78477281 1189.91953164 C-315.30067059 1186.43510869 -311.81656443 1182.95068969 -308.33245659 1179.46627235 C-307.04559017 1178.17928732 -307.04559017 1178.17928732 -305.73272645 1176.86630259 C-292.75374415 1163.88618082 -279.77352459 1150.90729718 -266.79271126 1137.92900658 C-252.04382333 1123.18297066 -237.29670874 1108.43516391 -222.55196727 1093.68498185 C-214.29069358 1085.4207608 -206.02803126 1077.15793376 -197.76340483 1068.89706558 C-192.2541666 1063.39005736 -186.74672583 1057.88125602 -181.24079003 1052.37094601 C-178.09652188 1049.22428232 -174.95144244 1046.07844068 -171.80419482 1042.93475678 C-168.94795463 1040.08171811 -166.09397611 1037.22643823 -163.24187786 1034.36925916 C-162.20959274 1033.33595687 -161.17644726 1032.30351331 -160.14239361 1031.27198085 C-158.75058389 1029.88332724 -157.36209051 1028.49135203 -155.9738155 1027.09916466 C-155.20046994 1026.32575134 -154.42712437 1025.55233802 -153.6303441 1024.75548793 C-151.88658221 1023.27717295 -151.88658221 1023.27717295 -152 1022 C-444.71 1022 -737.42 1022 -1039 1022 Z M-28 1022 C-24.45281278 1026.13838509 -21.09224959 1030.03271861 -17.27293885 1033.85125965 C-16.36930301 1034.75714278 -15.46566716 1035.66302592 -14.53464842 1036.59636006 C-13.54425179 1037.58419169 -12.55380927 1038.57197731 -11.56332588 1039.55972195 C-10.4970495 1040.62673878 -9.43099268 1041.69397505 -8.3651346 1042.76140973 C-5.43538258 1045.69422416 -2.50252654 1048.62391717 0.43084479 1051.55311098 C3.62142151 1054.74024849 6.80908938 1057.93029312 9.9971267 1061.11997038 C15.58489724 1066.70981375 21.17452219 1072.29779738 26.76536369 1077.88456917 C35.07873513 1086.19190589 43.38923809 1094.50210774 51.69915371 1102.81290118 C65.67779255 1116.79285404 79.65875822 1130.77047769 93.64104843 1144.74677849 C107.48661127 1158.58642567 121.3311408 1172.42710519 135.1742897 1186.26916695 C136.46505307 1187.55982721 136.46505307 1187.55982721 137.78189247 1188.87656141 C142.15192129 1193.2462519 146.52193165 1197.61596087 150.89193489 1201.98567695 C181.85011053 1232.94175181 212.81060434 1263.89550721 243.77246094 1294.84790039 C273.85273617 1324.91899227 303.93196163 1354.99113358 334.00976562 1385.06469727 C334.93678519 1385.9915853 335.86380475 1386.91847334 336.81891582 1387.8734489 C346.1283689 1397.18158346 355.43780063 1406.48973938 364.74721672 1415.79791094 C383.71181675 1434.75997471 402.67655927 1453.72189598 421.64138794 1472.68373108 C422.51337282 1473.55557867 423.3853577 1474.42742626 424.28376637 1475.32569348 C482.52012418 1533.55284958 540.75980345 1591.77668352 599 1650 C599.77037598 1649.22889893 600.54075195 1648.45779785 601.33447266 1647.66333008 C603.10030733 1645.89895103 604.87157657 1644.13999303 606.6484375 1642.38671875 C611.99031448 1637.0984136 617.14078831 1631.73821543 622 1626 C622.88992532 1624.96163952 623.78061785 1623.92393631 624.671875 1622.88671875 C626.72458516 1620.49753761 628.77362984 1618.10528366 630.8203125 1615.7109375 C632.88970698 1613.2917862 634.96777307 1610.88061267 637.0546875 1608.4765625 C643.42782964 1601.12126865 649.55356749 1593.61962822 655.5078125 1585.921875 C657.11074785 1583.85736141 658.72632058 1581.80317524 660.34375 1579.75 C668.51025293 1569.36020367 676.35686046 1558.77971095 684 1548 C684.5671875 1547.20335937 685.134375 1546.40671875 685.71875 1545.5859375 C709.46010515 1512.19965681 730.72971407 1477.14268561 750 1441 C750.51916992 1440.0301416 751.03833984 1439.0602832 751.57324219 1438.06103516 C760.33175437 1421.64880792 768.33631047 1404.94863821 776 1388 C776.47147461 1386.96439941 776.94294922 1385.92879883 777.42871094 1384.86181641 C813.73333404 1304.92207676 837.61157343 1219.76792875 857.75 1063 C857.81529907 1062.09273163 857.88059814 1061.18546326 857.94787598 1060.2507019 C858.13521234 1057.60513301 858.31163326 1054.95905845 858.484375 1052.3125 C858.56371277 1051.19525291 858.56371277 1051.19525291 858.64465332 1050.05543518 C859.22477105 1040.68363323 859 1031.43888518 859 1022 C566.29 1022 273.58 1022 -28 1022 Z M-65 1059 C-65 1351.71 -65 1644.42 -65 1946 C-50.9437577 1946.06965906 -50.9437577 1946.06965906 -36.9453125 1945.51953125 C-36.09217468 1945.4667955 -35.23903687 1945.41405975 -34.36004639 1945.35972595 C-31.61439024 1945.18585671 -28.8696939 1945.00092402 -26.125 1944.8125 C-25.16112366 1944.74720093 -24.19724731 1944.68190186 -23.2041626 1944.61462402 C64.35581251 1938.5959821 151.07500638 1920.52825 438 1787 C438.84062988 1786.42314453 439.68125977 1785.84628906 440.54736328 1785.25195312 C453.8875441 1776.08712097 467.06101682 1766.72359784 480 1757 C480.5995752 1756.54963379 481.19915039 1756.09926758 481.81689453 1755.63525391 C490.44260761 1749.13164101 498.82210514 1742.3308437 507.1796875 1735.48828125 C508.77261865 1734.18590621 510.3702952 1732.88933968 511.96875 1731.59375 C522.42595648 1723.10495885 532.62308574 1714.3359703 542.55078125 1705.234375 C545.31206777 1702.7153066 548.12033248 1700.25626512 550.94140625 1697.8046875 C554.99983899 1694.24682047 558.99575024 1690.61859456 563 1687 C557.86780167 1680.79205188 552.26499904 1675.12505679 546.56611919 1669.44027805 C545.50014597 1668.37326063 544.43439175 1667.30602438 543.36883578 1666.23859027 C540.43991536 1663.30577828 537.5078943 1660.37608343 534.57535657 1657.44688902 C531.38567505 1654.25974443 528.19889337 1651.06970251 525.01174051 1647.88002962 C519.42550532 1642.2901817 513.83741054 1636.70219818 508.24809456 1631.11543083 C499.93696152 1622.80807726 491.62868482 1614.49787144 483.32097086 1606.18709882 C468.48577825 1591.34663774 453.64772243 1576.50904203 438.80845184 1561.67265872 C425.8262568 1548.6929773 412.8449892 1535.71236923 399.86464882 1522.73083305 C399.00428503 1521.87039288 398.14392124 1521.00995271 397.25748583 1520.12343859 C393.76522639 1516.63086783 390.27297049 1513.13829353 386.78072041 1509.64571341 C354.01452209 1476.87645534 321.24540673 1444.11011569 288.47498817 1411.34507807 C259.33609874 1382.21093687 230.19979917 1353.074208 201.06567383 1323.93530273 C168.35223624 1291.21651594 135.63719067 1258.49933835 102.91953164 1225.78477281 C99.43510869 1222.30067059 95.95068969 1218.81656443 92.46627235 1215.33245659 C91.60828233 1214.47454564 90.75029231 1213.6166347 89.86630259 1212.73272645 C76.88618082 1199.75374415 63.90729718 1186.77352459 50.92900658 1173.79271126 C36.18297066 1159.04382333 21.43516391 1144.29670874 6.68498185 1129.55196727 C-1.5792392 1121.29069358 -9.84206624 1113.02803126 -18.10293442 1104.76340483 C-23.60994264 1099.2541666 -29.11874398 1093.74672583 -34.62905399 1088.24079003 C-37.77571768 1085.09652188 -40.92155932 1081.95144244 -44.06524322 1078.80419482 C-46.91828189 1075.94795463 -49.77356177 1073.09397611 -52.63074084 1070.24187786 C-53.66404313 1069.20959274 -54.69648669 1068.17644726 -55.72801915 1067.14239361 C-57.11667276 1065.75058389 -58.50864797 1064.36209051 -59.90083534 1062.9738155 C-60.67424866 1062.20046994 -61.44766198 1061.42712437 -62.24451207 1060.6303441 C-63.72282705 1058.88658221 -63.72282705 1058.88658221 -65 1059 Z M-118.77147735 1061.64680618 C-119.55247233 1062.42795715 -120.33346732 1063.20910811 -121.13812882 1064.01393032 C-122.03769528 1064.91124949 -122.93726174 1065.80856866 -123.86408779 1066.73307931 C-124.87594279 1067.74750067 -125.88775244 1068.76196726 -126.89952183 1069.776474 C-127.96807191 1070.84428541 -129.03684138 1071.91187733 -130.10581204 1072.97926772 C-133.07087274 1075.94123767 -136.03277224 1078.90635188 -138.99420986 1081.87194367 C-142.20586919 1085.08701885 -145.42040999 1088.29921073 -148.63459963 1091.51175594 C-154.27678497 1097.15186113 -159.91709706 1102.79383431 -165.55621338 1108.4370079 C-173.94148155 1116.82829249 -182.32959569 1125.21672776 -190.71831228 1133.60456482 C-204.82699565 1147.71193191 -218.93334332 1161.82163236 -233.03837776 1175.93264771 C-247.01137699 1189.91155671 -260.98540327 1203.88943769 -274.96081352 1217.86593628 C-275.82859787 1218.73378936 -276.69638221 1219.60164245 -277.59046305 1220.49579411 C-281.99720753 1224.9028769 -286.40397047 1229.30994124 -290.81074052 1233.71699846 C-322.05299128 1264.96135163 -353.29292155 1296.20802406 -384.53149414 1327.45605469 C-392.10714073 1335.03399289 -399.68279546 1342.61192296 -407.25848389 1350.18981934 C-407.72831448 1350.65978688 -408.19814508 1351.12975443 -408.68221297 1351.61396342 C-430.51430545 1373.45239734 -452.34770501 1395.28952428 -474.18144289 1417.12631314 C-475.59851474 1418.54358304 -477.01558602 1419.96085352 -478.43265718 1421.3781241 C-487.82348584 1430.77027252 -497.21433711 1440.16239834 -506.60520338 1449.55450916 C-525.73679872 1468.68864096 -544.86825166 1487.82291515 -563.99961853 1506.95727539 C-564.87931731 1507.83711146 -565.75901608 1508.71694752 -566.6653724 1509.62344529 C-625.4459666 1568.41324572 -684.22324064 1627.20636561 -743 1686 C-742.22438721 1686.7748877 -741.44877441 1687.54977539 -740.6496582 1688.34814453 C-738.96272425 1690.0364774 -737.28075927 1691.72980054 -735.60546875 1693.4296875 C-730.57279917 1698.51926934 -725.44197217 1703.35594467 -720 1708 C-718.26663317 1709.50164474 -716.53597803 1711.00638659 -714.80517578 1712.51098633 C-712.18858564 1714.78370636 -709.56673786 1717.05032003 -706.94482422 1719.31689453 C-705.09755344 1720.91557451 -703.25370191 1722.51812137 -701.41015625 1724.12109375 C-694.08006605 1730.47459165 -686.59428338 1736.57317183 -678.921875 1742.5078125 C-676.85736141 1744.11074785 -674.80317524 1745.72632058 -672.75 1747.34375 C-662.36009515 1755.51033822 -651.77855747 1763.35508663 -641 1771 C-640.21931152 1771.55655273 -639.43862305 1772.11310547 -638.63427734 1772.68652344 C-602.21240431 1798.62499324 -563.8751636 1821.77749123 -524 1842 C-522.92443848 1842.54914063 -522.92443848 1842.54914063 -521.82714844 1843.109375 C-518.02528282 1845.04977021 -514.20673745 1846.95284951 -510.37402344 1848.83154297 C-508.6194747 1849.69510429 -506.86797295 1850.5648627 -505.11816406 1851.43798828 C-450.86336963 1878.48270523 -393.50830336 1899.26631627 -335 1915 C-334.28815552 1915.1918689 -333.57631104 1915.38373779 -332.84289551 1915.5814209 C-271.87073505 1931.9622596 -209.36453639 1941.45407536 -146.375 1945.25 C-145.69415344 1945.29138092 -145.01330688 1945.33276184 -144.31182861 1945.37539673 C-134.84911532 1945.93571756 -125.49745913 1946 -116 1946 C-116 1653.62 -116 1361.24 -116 1060 C-117.2810482 1059.88652257 -117.2810482 1059.88652257 -118.77147735 1061.64680618 Z " fill="#000000" transform="translate(1090,3)"/>
</svg>
