<?xml version="1.0" encoding="UTF-8"?>
<svg version="1.1" xmlns="http://www.w3.org/2000/svg" width="2000" height="2000">
<path d="M0 0 C43.34698077 -0.84332647 43.34698077 -0.84332647 59 4 C59.80276367 4.23605957 60.60552734 4.47211914 61.43261719 4.71533203 C82.71707338 11.09080356 102.49565553 21.71530223 118.765625 36.921875 C120.82964809 38.84156081 122.95031803 40.64556206 125.125 42.4375 C126.07375 43.283125 127.0225 44.12875 128 45 C128 45.66 128 46.32 128 47 C128.66 47 129.32 47 130 47 C130 47.66 130 48.32 130 49 C130.66 49 131.32 49 132 49 C136 53.47058824 136 53.47058824 136 56 C136.66 56 137.32 56 138 56 C139.20166016 57.3984375 139.20166016 57.3984375 140.5390625 59.375 C141.280354 60.46977661 141.280354 60.46977661 142.03662109 61.58666992 C142.82286865 62.78126831 142.82286865 62.78126831 143.625 64 C144.16334473 64.81509033 144.70168945 65.63018066 145.25634766 66.4699707 C150.16353015 74.0316061 154.30500948 81.78609311 158 90 C158.54269531 91.1859375 159.08539062 92.371875 159.64453125 93.59375 C174.95194249 129.24645465 175.16651982 171.70320631 161.1875 207.8125 C160.15382504 210.2209102 159.09074882 212.61689475 158 215 C157.71286133 215.63711914 157.42572266 216.27423828 157.12988281 216.93066406 C149.8823474 232.84390128 140.24620576 246.54396828 128 259 C127.1853125 259.82886719 126.370625 260.65773438 125.53125 261.51171875 C122.87391327 264.12394637 120.14348053 266.63107952 117.375 269.125 C114.52117581 271.69735112 111.70259648 274.26987616 109 277 C109.37697021 277.53778076 109.75394043 278.07556152 110.14233398 278.62963867 C113.19249952 282.98177774 116.24040667 287.33547616 119.28515625 291.69140625 C121.49359388 294.85058163 123.70787968 298.00532037 125.93359375 301.15234375 C126.74746227 302.30984912 127.56126991 303.46739731 128.375 304.625 C129.08398438 305.62789062 129.79296875 306.63078125 130.5234375 307.6640625 C132 310 132 310 132 312 C132.66 312 133.32 312 134 312 C135.3046875 313.80859375 135.3046875 313.80859375 136.875 316.4375 C139.96783551 321.43460199 143.22582239 326.26871734 146.625 331.0625 C147.39469116 332.14869629 147.39469116 332.14869629 148.17993164 333.25683594 C150.81262257 336.95901964 153.46441543 340.64662501 156.13671875 344.3203125 C163.44668801 354.36982707 170.52693068 364.55206001 177.4921875 374.84375 C181.37065543 380.56773629 185.34389426 386.22364867 189.3215332 391.87890625 C192 395.76974404 192 395.76974404 192 398 C187.57119241 398.22379308 183.1454363 398.38636162 178.71264648 398.49438477 C177.20783133 398.53943718 175.7034057 398.60070654 174.19995117 398.67895508 C161.78343061 399.30862947 161.78343061 399.30862947 157.61938477 396.25317383 C155.79453864 393.92952472 154.40035708 391.59864498 153 389 C151.98698611 387.55180802 150.95745659 386.115 149.91015625 384.69140625 C148.9580944 383.31706935 148.00884171 381.94078191 147.0625 380.5625 C146.56943359 379.85673828 146.07636719 379.15097656 145.56835938 378.42382812 C145.10365234 377.74900391 144.63894531 377.07417969 144.16015625 376.37890625 C143.74386963 375.7763501 143.32758301 375.17379395 142.89868164 374.55297852 C142 373 142 373 142 371 C141.34 371 140.68 371 140 371 C138.73046875 369.2265625 138.73046875 369.2265625 137.1875 366.625 C133.88947806 361.28206675 130.32392813 356.19770919 126.625 351.125 C121.78891859 344.48016411 117.04290957 337.7869894 112.38769531 331.01367188 C103.37120685 317.92992858 94.29277664 304.8892599 85 292 C81.38308133 292.57181762 78.17589066 293.65268625 74.78442383 295.01879883 C65.38845952 298.80068319 55.91712815 301.04465117 46 303 C44.35 303.33 42.7 303.66 41 304 C35.39 304 29.78 304 24 304 C24 335.02 24 366.04 24 398 C-69.06 398 -162.12 398 -258 398 C-258 395.03 -258 392.06 -258 389 C-257.34 388.67 -256.68 388.34 -256 388 C-255.99120064 387.00854225 -255.99120064 387.00854225 -255.98222351 385.99705505 C-255.91816645 379.10216882 -255.83371455 372.20774401 -255.73754883 365.31323242 C-255.70434558 362.74200534 -255.67629942 360.17070618 -255.65356445 357.59936523 C-255.61993486 353.89796302 -255.5676123 350.1972186 -255.51171875 346.49609375 C-255.50532883 345.35103867 -255.4989389 344.20598358 -255.49235535 343.02622986 C-255.3686556 336.27328087 -255.08886086 330.58758319 -250.5 325.2578125 C-245.43264441 321.43090333 -241.50009793 320.78992154 -235.3125 320.4375 C-234.61060547 320.39431641 -233.90871094 320.35113281 -233.18554688 320.30664062 C-231.45724794 320.2008264 -229.7286489 320.09993419 -228 320 C-227.731875 319.113125 -227.46375 318.22625 -227.1875 317.3125 C-226 314 -226 314 -224.40234375 311.83984375 C-221.77350948 306.51627129 -222.56422231 300.29924419 -222.56054688 294.45898438 C-222.44451005 288.27702266 -222.05280828 284.74714415 -218 280 C-217.29875 279.05125 -216.5975 278.1025 -215.875 277.125 C-215.25625 276.42375 -214.6375 275.7225 -214 275 C-213.34 275 -212.68 275 -212 275 C-212 274.34 -212 273.68 -212 273 C-207.52941176 269 -207.52941176 269 -205 269 C-205 268.34 -205 267.68 -205 267 C-188.14893617 257 -188.14893617 257 -181 257 C-181.0825 255.80375 -181.165 254.6075 -181.25 253.375 C-181.22598019 248.82724942 -179.98251717 246.51784076 -177 243 C-170.82110092 237 -170.82110092 237 -168 237 C-168.0314209 235.98687744 -168.0628418 234.97375488 -168.09521484 233.92993164 C-168.20466477 230.13387459 -168.27299994 226.33795375 -168.32958984 222.54077148 C-168.35957242 220.9044644 -168.40037433 219.26831543 -168.45263672 217.63256836 C-168.96493609 201.17369539 -168.96493609 201.17369539 -163.57543945 194.61035156 C-161.73146056 192.72550966 -159.86849129 190.86052331 -158 189 C-156.8349166 186.97128835 -155.73473959 184.90447981 -154.6875 182.8125 C-151.70369441 177.11497467 -148.52933918 171.62494528 -144 167 C-143.34 167 -142.68 167 -142 167 C-142 166.34 -142 165.68 -142 165 C-141.34 165 -140.68 165 -140 165 C-140 164.34 -140 163.68 -140 163 C-138.09438806 161.45793883 -136.20937406 160.06269037 -134.1875 158.6875 C-133.59727051 158.28450684 -133.00704102 157.88151367 -132.39892578 157.46630859 C-121.36034085 150.10032999 -109.39192026 145.34138097 -96 146 C-95.67 143.36 -95.34 140.72 -95 138 C-95.66 138 -96.32 138 -97 138 C-97.49940808 131.88225104 -96.24900602 128.97504047 -93 124 C-92.34 124 -91.68 124 -91 124 C-91 123.34 -91 122.68 -91 122 C-90.34443115 121.62496338 -89.6888623 121.24992676 -89.01342773 120.86352539 C-86.61994414 119.05763829 -86.61994414 119.05763829 -86.62524414 115.51342773 C-86.65973445 114.06957764 -86.71439268 112.62612112 -86.78515625 111.18359375 C-86.8211715 109.598312 -86.8569717 108.01302536 -86.89257812 106.42773438 C-86.97291758 103.94160666 -87.06178619 101.45604256 -87.1574707 98.97045898 C-87.78964369 81.16455009 -87.78964369 81.16455009 -82 73 C-81.34 73 -80.68 73 -80 73 C-80 72.34 -80 71.68 -80 71 C-79.34 70.67 -78.68 70.34 -78 70 C-77.21136805 68.23370073 -76.49424881 66.43524088 -75.8125 64.625 C-71.30844686 53.56126482 -64.67113409 44.19556915 -56 36 C-55.34 36 -54.68 36 -54 36 C-54 35.34 -54 34.68 -54 34 C-39.43778661 21.04803136 -19.81039865 15.50805315 -1 13 C-0.67 8.71 -0.34 4.42 0 0 Z M24 9 C24 12.96 24 16.92 24 21 C25.77375 21.0825 27.5475 21.165 29.375 21.25 C51.58661855 23.01053003 74.20374197 30.8854007 92.328125 43.93359375 C93.95052691 45.17925581 93.95052691 45.17925581 96 45 C96 45.66 96 46.32 96 47 C97.65 47.66 99.3 48.32 101 49 C101 49.66 101 50.32 101 51 C102.76354335 52.55726398 104.58663608 54.04760233 106.4375 55.5 C111.89789474 59.79578947 111.89789474 59.79578947 113 62 C113.66 62 114.32 62 115 62 C115.24492188 62.55945313 115.48984375 63.11890625 115.7421875 63.6953125 C117.23579095 66.43203933 119.07522167 68.5252541 121.125 70.875 C126.32806081 77.1404221 130.18297638 83.82735122 134 91 C134.47308594 91.86496094 134.94617188 92.72992187 135.43359375 93.62109375 C139.04079203 100.46465684 141.78636672 107.59298115 144 115 C144.20044922 115.66596191 144.40089844 116.33192383 144.60742188 117.01806641 C150.92590058 139.24150256 150.7318988 166.96229678 144 189 C143.63395223 190.31245473 143.2680655 191.62495439 142.90234375 192.9375 C140.07391089 202.2952982 135.89884387 210.59713879 131 219 C130.44441406 219.96679688 129.88882813 220.93359375 129.31640625 221.9296875 C111.30259249 251.73671745 82.07534539 271.01195928 48.72436523 279.58496094 C43.33065795 280.85711163 37.94677748 281.57180506 32.4375 282.125 C31.61958984 282.21136719 30.80167969 282.29773437 29.95898438 282.38671875 C27.97313606 282.59575541 25.98663234 282.79855077 24 283 C24 286.96 24 290.92 24 295 C51.52125553 296.44848713 79.21431279 284.94737474 101.29003906 269.21337891 C102.51099912 268.34699234 103.74352522 267.49681171 104.98339844 266.65771484 C106.69061885 265.48801616 108.3499651 264.24907222 110 263 C110 262.34 110 261.68 110 261 C110.53753906 260.7834375 111.07507813 260.566875 111.62890625 260.34375 C133.68443103 247.84440811 149.46328251 215.45587113 156.18359375 192 C157.25970861 188.0255108 158.15091771 184.02905876 159 180 C159.226875 178.96488281 159.45375 177.92976562 159.6875 176.86328125 C166.39277228 139.75146173 157.26971625 101.75857673 136 71 C135.38125 70.08347656 134.7625 69.16695312 134.125 68.22265625 C113.30726891 38.8491531 80.34788173 17.4267022 44.93505859 10.60205078 C37.97051421 9.41832727 31.06081647 8.71180341 24 9 Z M-50 50 C-58.41540351 58.33999636 -58.41540351 58.33999636 -62 69 C-58.78673743 69.9491946 -58.78673743 69.9491946 -55 70 C-51.78266213 67.69393521 -51.78266213 67.69393521 -49 65 C-43.37468047 62.64099504 -37.5107909 64.04060768 -32 66 C-30.68 66 -29.36 66 -28 66 C-28 65.34 -28 64.68 -28 64 C-20.16412574 61.35125377 -14.04976053 59.482014 -6.1875 63 C-5.43855469 63.37125 -4.68960938 63.7425 -3.91796875 64.125 C-2.04809084 65.138353 -2.04809084 65.138353 0 65 C0 52.46 0 39.92 0 27 C-19.54033706 27 -36.37364638 36.72989092 -50 50 Z M26 30 C26 61.35 26 92.7 26 125 C28.31 125.66 30.62 126.32 33 127 C33.79735565 126.20264435 34.5947113 125.4052887 35.41622925 124.58377075 C56.6108195 103.3891805 77.80540975 82.19459025 99 61 C77.6373097 42.2132682 54.23270408 33.3214946 26 30 Z M-25.25 75.875 C-26.84925099 78.73080535 -27.62141587 80.78203494 -28 84 C-30.55490872 82.72254564 -30.6675276 81.71723654 -31.75 79.125 C-33.23764621 76.072855 -34.00806807 74.99390413 -36.8125 72.875 C-40.98772713 71.72885922 -43.06299324 72.25021922 -47 74 C-50.92361463 77.61385558 -51.58958626 80.76722477 -52 86 C-52.99 86 -53.98 86 -55 86 C-55.2475 85.236875 -55.495 84.47375 -55.75 83.6875 C-57.17432882 80.62519304 -57.96580319 79.47609575 -61 78 C-65.34792075 78 -67.39914169 78.51931335 -70.8125 81.25 C-72.87881498 83.84765312 -74.13729796 85.80800246 -75 89 C-74.67 89.66 -74.34 90.32 -74 91 C-73.84693099 92.81171098 -73.75053339 94.6283794 -73.68359375 96.4453125 C-73.64169922 97.52167969 -73.59980469 98.59804688 -73.55664062 99.70703125 C-73.51732422 100.83496094 -73.47800781 101.96289062 -73.4375 103.125 C-73.39431641 104.26066406 -73.35113281 105.39632812 -73.30664062 106.56640625 C-73.2003396 109.37747768 -73.09830595 112.18863945 -73 115 C-71.02 114.505 -71.02 114.505 -69 114 C-68.98018066 113.19256348 -68.96036133 112.38512695 -68.93994141 111.55322266 C-68.84494101 107.91014125 -68.73516088 104.26765314 -68.625 100.625 C-68.57859375 98.71847656 -68.57859375 98.71847656 -68.53125 96.7734375 C-68.47324219 94.95585938 -68.47324219 94.95585938 -68.4140625 93.1015625 C-68.3826416 91.98088379 -68.3512207 90.86020508 -68.31884766 89.70556641 C-68 87 -68 87 -66 85 C-63.0625 84.625 -63.0625 84.625 -60 85 C-57.13095928 87.93615525 -56.60561083 90.16698738 -56.48828125 94.203125 C-56.43510742 95.67265625 -56.43510742 95.67265625 -56.38085938 97.171875 C-56.35830078 98.18765625 -56.33574219 99.2034375 -56.3125 100.25 C-56.26125977 101.796875 -56.26125977 101.796875 -56.20898438 103.375 C-56.12661907 105.91655812 -56.05743166 108.45777626 -56 111 C-52.535 110.505 -52.535 110.505 -49 110 C-48.98541748 109.26362305 -48.97083496 108.52724609 -48.95581055 107.76855469 C-48.88128889 104.42850996 -48.78464127 101.08946019 -48.6875 97.75 C-48.66494141 96.59113281 -48.64238281 95.43226563 -48.61914062 94.23828125 C-48.58369141 93.12324219 -48.54824219 92.00820313 -48.51171875 90.859375 C-48.48553467 89.83295898 -48.45935059 88.80654297 -48.43237305 87.74902344 C-47.94429626 84.64583621 -47.15331969 83.25446489 -45 81 C-42.625 80.0625 -42.625 80.0625 -40 80 C-37.38012695 81.1496582 -37.38012695 81.1496582 -35 83 C-34.34057617 85.54370117 -34.34057617 85.54370117 -34.29296875 88.54296875 C-34.26396484 89.61611328 -34.23496094 90.68925781 -34.20507812 91.79492188 C-34.19927734 92.91447266 -34.19347656 94.03402344 -34.1875 95.1875 C-34.16236328 96.31865234 -34.13722656 97.44980469 -34.11132812 98.61523438 C-34.05237145 101.40978076 -34.02334531 104.20492927 -34 107 C-30.37 107 -26.74 107 -23 107 C-22.98541748 106.22809326 -22.97083496 105.45618652 -22.95581055 104.66088867 C-22.88141967 101.16924907 -22.7847291 97.6785751 -22.6875 94.1875 C-22.66494141 92.97255859 -22.64238281 91.75761719 -22.61914062 90.50585938 C-22.58369141 89.34248047 -22.54824219 88.17910156 -22.51171875 86.98046875 C-22.48553467 85.90692139 -22.45935059 84.83337402 -22.43237305 83.72729492 C-22 81 -22 81 -20.65161133 79.17700195 C-18.16142147 77.40239659 -16.02011906 77.18490525 -13 77 C-10.25045672 77.96605575 -9.30992243 78.38015514 -8 81 C-7.84693099 82.81171098 -7.75053339 84.6283794 -7.68359375 86.4453125 C-7.64169922 87.52167969 -7.59980469 88.59804688 -7.55664062 89.70703125 C-7.51732422 90.83496094 -7.47800781 91.96289062 -7.4375 93.125 C-7.39431641 94.26066406 -7.35113281 95.39632812 -7.30664062 96.56640625 C-7.2003396 99.37747768 -7.09830595 102.18863945 -7 105 C-5.0085944 105.38133299 -3.00720923 105.71325582 -1 106 C1.33857698 103.66142302 0.32836604 98.13295417 0.375 95 C0.41238281 94.07832031 0.44976563 93.15664063 0.48828125 92.20703125 C0.58520624 84.57149618 -1.46059507 79.17328241 -6.40820312 73.33959961 C-9.05539547 70.80916925 -10.93993257 70.00843052 -14.5625 69.5 C-19.7647226 70.25668692 -22.01778542 71.74494803 -25.25 75.875 Z M103.25 77.3125 C102.05117188 78.54419922 102.05117188 78.54419922 100.828125 79.80078125 C98.78691885 81.77969716 98.78691885 81.77969716 99 84 C98.34 84 97.68 84 97 84 C97 84.66 97 85.32 97 86 C96.34 86 95.68 86 95 86 C95 86.66 95 87.32 95 88 C94.34 88 93.68 88 93 88 C93 88.66 93 89.32 93 90 C92.43645813 90.23822479 91.87291626 90.47644958 91.29229736 90.72189331 C88.49105856 92.28376836 86.58603684 94.17447944 84.32324219 96.44970703 C83.40258972 97.37051056 82.48193726 98.29131409 81.53338623 99.24002075 C80.5377747 100.24584465 79.54227352 101.2517778 78.546875 102.2578125 C77.52169807 103.28672149 76.49607725 104.31518837 75.47003174 105.3432312 C72.77606836 108.04481581 70.08816632 110.75235341 67.40148926 113.46118164 C64.65671696 116.22644489 61.90624528 118.98602633 59.15625 121.74609375 C53.76524427 127.15852274 48.38063036 132.57725438 43 138 C44.485 141.465 44.485 141.465 46 145 C57.81311026 145.02314495 69.62621515 145.04092611 81.43934345 145.05181217 C86.9243328 145.05703627 92.40930667 145.06412538 97.89428711 145.07543945 C103.18512818 145.08628507 108.47595433 145.09228041 113.76680565 145.09487724 C115.78786644 145.09672846 117.80892639 145.10034329 119.82998085 145.10573006 C122.65530808 145.11296266 125.48057324 145.11398999 128.3059082 145.11352539 C129.14603958 145.11712067 129.98617096 145.12071594 130.85176086 145.12442017 C134.15895238 145.11851447 136.840008 145.05333067 140 144 C138.97909182 119.90656698 128.94742335 91.62791262 112 74 C107.86151386 71.72095296 106.18071786 74.23333075 103.25 77.3125 Z M-76 127 C-76.33 127.66 -76.66 128.32 -77 129 C-72.18173309 128.51817331 -67.48390219 127.90952227 -62.73046875 126.98828125 C-55.58399689 125.78824438 -48.49572416 125.59300005 -41.27026367 125.57446289 C-39.04044343 125.56238049 -36.81323936 125.51285206 -34.58398438 125.46289062 C-33.15105492 125.45344247 -31.71810884 125.44619977 -30.28515625 125.44140625 C-29.00519775 125.42795166 -27.72523926 125.41449707 -26.40649414 125.40063477 C-22.1440376 126.15060472 -20.77111358 127.77583482 -18 131 C-14.56215867 132.54494084 -11.51101385 131.77715973 -7.875 131.125 C-6.82054687 130.94195313 -5.76609375 130.75890625 -4.6796875 130.5703125 C-2.0438971 130.12662675 -2.0438971 130.12662675 0 129 C0 125.04 0 121.08 0 117 C-24.52735621 116.42137299 -53.01024266 117.77308221 -76 127 Z M-55 134 C-54.34 134.66 -53.68 135.32 -53 136 C-52.60235737 137.98821313 -52.26224651 139.98944339 -52 142 C-39.75558613 142.9295955 -39.75558613 142.9295955 -29 138 C-28.01 137.34 -27.02 136.68 -26 136 C-26 135.34 -26 134.68 -26 134 C-35.57 134 -45.14 134 -55 134 Z M24 141 C24 148.26 24 155.52 24 163 C24.66 163 25.32 163 26 163 C26 162.34 26 161.68 26 161 C26.66 161 27.32 161 28 161 C30.88566154 156.49836801 31.42244379 153.27939459 30.65625 148.125 C29.63635125 144.82247072 27.67740601 143.07498966 25 141 C24.67 141 24.34 141 24 141 Z M-38 157 C-43.78839435 162.8263096 -51.51714109 170.71119891 -53 179 C-51.94619141 178.51080078 -51.94619141 178.51080078 -50.87109375 178.01171875 C-44.45068288 175.74928825 -36.56849088 176.54033536 -30 178 C-30 177.34 -30 176.68 -30 176 C-23.43439122 173.66556132 -16.22624408 172.47164129 -9.515625 174.8984375 C-7.62902172 175.84173914 -5.80568525 176.90977494 -4 178 C-1.86899344 177.02614524 -1.86899344 177.02614524 0 175 C0.35632458 172.28369557 0.46742617 169.97857076 0.390625 167.26953125 C0.38213531 166.14390022 0.38213531 166.14390022 0.37347412 164.99552917 C0.35109668 162.60053496 0.30090171 160.20704131 0.25 157.8125 C0.22993659 156.18817266 0.21168553 154.56382185 0.1953125 152.93945312 C0.15122794 148.95905793 0.08219427 144.97978329 0 141 C-13.50274495 141 -28.2008103 148.02110446 -38 157 Z M-72.75 151.9375 C-74.06291016 152.06801758 -74.06291016 152.06801758 -75.40234375 152.20117188 C-76.64951172 152.33168945 -76.64951172 152.33168945 -77.921875 152.46484375 C-78.68081055 152.543396 -79.43974609 152.62194824 -80.22167969 152.70288086 C-82.01999761 152.82636025 -82.01999761 152.82636025 -83 154 C-83.08868299 156.95705321 -83.11520296 159.89065056 -83.09765625 162.84765625 C-83.0962413 163.7340831 -83.09482635 164.62050995 -83.09336853 165.53379822 C-83.08775215 168.37673254 -83.07519691 171.21958931 -83.0625 174.0625 C-83.05748711 175.98502491 -83.05292384 177.90755104 -83.04882812 179.83007812 C-83.03777741 184.55341549 -83.02050183 189.27669458 -83 194 C-80.03 194 -77.06 194 -74 194 C-73.35309078 192.3962669 -72.70751236 190.79199694 -72.0625 189.1875 C-71.70285156 188.29417969 -71.34320313 187.40085937 -70.97265625 186.48046875 C-70.26386514 184.6729091 -69.6139753 182.84192591 -69 181 C-68.34 181 -67.68 181 -67 181 C-67 180.34 -67 179.68 -67 179 C-66.34 179 -65.68 179 -65 179 C-64.73445313 178.32453125 -64.46890625 177.6490625 -64.1953125 176.953125 C-63.84210938 176.06109375 -63.48890625 175.1690625 -63.125 174.25 C-62.77695312 173.36828125 -62.42890625 172.4865625 -62.0703125 171.578125 C-61 169 -61 169 -59.90625 167.125 C-58.5874859 164.03272556 -58.56066761 161.092017 -58.375 157.75 C-58.30023438 156.48671875 -58.22546875 155.2234375 -58.1484375 153.921875 C-58.09945312 152.95765625 -58.05046875 151.9934375 -58 151 C-62.95782463 150.84634841 -67.82794884 151.41725321 -72.75 151.9375 Z M-129 172 C-129.80050781 172.6909375 -130.60101563 173.381875 -131.42578125 174.09375 C-137.373628 179.61175236 -141.23869909 185.85231884 -145 193 C-143.17978623 194.15534983 -143.17978623 194.15534983 -141 195 C-139.34341758 194.27110374 -137.68911882 193.53545724 -136.05859375 192.75 C-132.1405903 191.322568 -128.09464219 191.4472233 -124 192 C-122.989375 192.556875 -121.97875 193.11375 -120.9375 193.6875 C-117.4926553 195.22668593 -116.96267451 194.9239271 -113.5625 193.6875 C-112.79292969 193.38714844 -112.02335937 193.08679688 -111.23046875 192.77734375 C-105.85016114 190.9022453 -100.51537155 192.21208978 -95 193 C-95 181.78 -95 170.56 -95 159 C-108.2000534 159 -119.08117574 163.29540383 -129 172 Z M45 160 C44.67 162.31 44.34 164.62 44 167 C44.66 167 45.32 167 46 167 C46 167.66 46 168.32 46 169 C46.66 169 47.32 169 48 169 C48 169.66 48 170.32 48 171 C48.66 171 49.32 171 50 171 C50 171.66 50 172.32 50 173 C50.66 173 51.32 173 52 173 C52.66 174.32 53.32 175.64 54 177 C54.66 177 55.32 177 56 177 C56.66 178.32 57.32 179.64 58 181 C58.66 181 59.32 181 60 181 C60.66 182.32 61.32 183.64 62 185 C62.66 185 63.32 185 64 185 C64.2475 185.61875 64.495 186.2375 64.75 186.875 C65.82143729 189.13746494 65.82143729 189.13746494 68 190 C70.57365089 191.28682545 70.72348972 192.44697943 72 195 C73.86296732 197.14714878 75.79496939 199.2024207 78 201 C78.66 201 79.32 201 80 201 C80.66 202.32 81.32 203.64 82 205 C82.66 205 83.32 205 84 205 C84.2475 205.57234375 84.495 206.1446875 84.75 206.734375 C86.19316199 209.35010611 87.88216222 211.14773456 90 213.25 C90.70125 213.95640625 91.4025 214.6628125 92.125 215.390625 C93.84110768 217.21710399 93.84110768 217.21710399 96 217 C96.2475 217.5775 96.495 218.155 96.75 218.75 C98.18299988 221.32939979 99.78424676 223.06121592 102 225 C102.66 225 103.32 225 104 225 C104.2475 225.598125 104.495 226.19625 104.75 226.8125 C106.16846907 229.29482087 107.69264738 230.36328035 110 232 C127.74822505 213.14251088 140 186.10287178 140 160 C108.65 160 77.3 160 45 160 Z M26 179 C26 210.02 26 241.04 26 273 C52.4459511 273 78.8109536 262.53351997 98 244 C97.67 243.01 97.34 242.02 97 241 C96.34 241 95.68 241 95 241 C95 240.34 95 239.68 95 239 C94.34 239 93.68 239 93 239 C93 238.34 93 237.68 93 237 C92.34 237 91.68 237 91 237 C90.78005371 236.45539124 90.56010742 235.91078247 90.33349609 235.34967041 C88.56652952 232.23620866 86.18457975 229.90591138 83.6640625 227.40527344 C83.12078308 226.85848938 82.57750366 226.31170532 82.01776123 225.74835205 C80.22516477 223.94697052 78.42537258 222.15298232 76.625 220.359375 C75.37682289 219.10985071 74.12894281 217.86002965 72.88134766 216.60992432 C70.26854023 213.99417032 67.65215399 211.38206354 65.03320312 208.77246094 C61.67024761 205.42092324 58.316381 202.06045611 54.96511841 198.69723129 C52.39174416 196.11664601 49.81364522 193.54082354 47.23406982 190.96643829 C45.99498501 189.72869085 44.75739297 188.4894472 43.52130127 187.24871063 C41.79762761 185.51998163 40.06771477 183.79775419 38.3359375 182.07714844 C37.82262878 181.55979126 37.30932007 181.04243408 36.78045654 180.50939941 C32.39007518 176.17158173 32.06837367 176.57265053 26 179 Z M-25.67578125 184.22265625 C-28.25195595 187.68035386 -29.08078754 191.84741739 -30 196 C-32 195 -32 195 -33.3125 191.6875 C-34.82971571 188.0082519 -36.44154085 185.98611674 -40 184 C-43.06496649 183.67705523 -43.06496649 183.67705523 -46 185 C-49.02066848 187.88933506 -50.85385488 189.65546487 -51.3125 193.875 C-51.209375 194.57625 -51.10625 195.2775 -51 196 C-51.99 196 -52.98 196 -54 196 C-54.2475 195.21625 -54.495 194.4325 -54.75 193.625 C-56.15389099 190.67682892 -57.00675737 190.0975223 -60 189 C-62.39763185 191.39763185 -62.34280586 192.33273498 -62.625 195.625 C-62.69976562 196.44226562 -62.77453125 197.25953125 -62.8515625 198.1015625 C-62.90054688 198.72804688 -62.94953125 199.35453125 -63 200 C-62.34 199.34 -61.68 198.68 -61 198 C-58.4375 197.8125 -58.4375 197.8125 -56 198 C-54.41596476 199.58403524 -54.78025065 201.2771638 -54.68359375 203.47265625 C-54.62075195 204.82133789 -54.62075195 204.82133789 -54.55664062 206.19726562 C-54.51732422 207.14279297 -54.47800781 208.08832031 -54.4375 209.0625 C-54.39431641 210.01189453 -54.35113281 210.96128906 -54.30664062 211.93945312 C-54.20020724 214.29281353 -54.09818992 216.64628354 -54 219 C-51.525 218.505 -51.525 218.505 -49 218 C-48.98018066 217.34926514 -48.96036133 216.69853027 -48.93994141 216.02807617 C-48.84470701 213.08080849 -48.73502182 210.13425115 -48.625 207.1875 C-48.5940625 206.16333984 -48.563125 205.13917969 -48.53125 204.08398438 C-48.49257813 203.10107422 -48.45390625 202.11816406 -48.4140625 201.10546875 C-48.3826416 200.19949951 -48.3512207 199.29353027 -48.31884766 198.36010742 C-48 196 -48 196 -46 193 C-43.0625 192.1875 -43.0625 192.1875 -40 192 C-37 194 -37 194 -36.58349609 195.90771484 C-36.56367676 196.66777832 -36.54385742 197.4278418 -36.5234375 198.2109375 C-36.47703125 199.46003906 -36.47703125 199.46003906 -36.4296875 200.734375 C-36.40261719 202.04148437 -36.40261719 202.04148437 -36.375 203.375 C-36.32376858 205.09125248 -36.26919772 206.80740924 -36.2109375 208.5234375 C-36.19337402 209.28575684 -36.17581055 210.04807617 -36.15771484 210.83349609 C-36.03791459 213.33414076 -36.03791459 213.33414076 -35 217 C-30.05 216.505 -30.05 216.505 -25 216 C-24.96132813 213.56173828 -24.96132813 213.56173828 -24.921875 211.07421875 C-24.86560363 208.94528529 -24.80825609 206.81638008 -24.75 204.6875 C-24.73582031 203.61564453 -24.72164062 202.54378906 -24.70703125 201.43945312 C-24.67480469 200.41142578 -24.64257812 199.38339844 -24.609375 198.32421875 C-24.58842773 197.37635498 -24.56748047 196.42849121 -24.54589844 195.4519043 C-24 193 -24 193 -22.18847656 191.15551758 C-18.89613136 189.41715637 -16.52974316 190.15024702 -13 191 C-10.47871644 193.52128356 -10.70646931 194.51239013 -10.5859375 198.0078125 C-10.52792969 199.48701172 -10.52792969 199.48701172 -10.46875 200.99609375 C-10.4378125 202.02863281 -10.406875 203.06117188 -10.375 204.125 C-10.31699219 205.68541016 -10.31699219 205.68541016 -10.2578125 207.27734375 C-10.16335671 209.85126402 -10.08058229 212.42560805 -10 215 C-6.7 215 -3.4 215 0 215 C0 205.76 0 196.52 0 187 C-0.66 187.33 -1.32 187.66 -2 188 C-2.65772428 191.02934491 -2.65772428 191.02934491 -3 194 C-3.99 194 -4.98 194 -6 194 C-6.0825 193.113125 -6.165 192.22625 -6.25 191.3125 C-7.25372278 186.87939106 -9.15499298 184.29150491 -12.875 181.6875 C-18.01865218 180.02337724 -21.57261015 180.50718636 -25.67578125 184.22265625 Z M-137.75 204.8125 C-139.29333402 207.51333454 -139.65112187 209.92987245 -140 213 C-142.03839677 211.23956643 -142.97870959 210.05677443 -143.9375 207.5 C-145.19166065 204.54903376 -146.11421763 203.40166572 -149 202 C-151.70835053 202.34977824 -151.70835053 202.34977824 -154 204 C-155.81876316 207.59961914 -156.24004202 210.51623933 -156.1953125 214.51953125 C-156.18886719 215.54111328 -156.18242187 216.56269531 -156.17578125 217.61523438 C-156.15902344 218.67033203 -156.14226562 219.72542969 -156.125 220.8125 C-156.11597656 221.88693359 -156.10695313 222.96136719 -156.09765625 224.06835938 C-156.07415306 226.71246854 -156.04129575 229.35611872 -156 232 C-155.67 232 -155.34 232 -155 232 C-154.93941406 230.75863281 -154.87882812 229.51726562 -154.81640625 228.23828125 C-154.73196377 226.59634423 -154.64731764 224.95441768 -154.5625 223.3125 C-154.52318359 222.49587891 -154.48386719 221.67925781 -154.44335938 220.83789062 C-154.23101997 216.80344189 -153.95552078 212.94252691 -153 209 C-150.6568787 209.25561323 -148.32156597 209.59270772 -146 210 C-144.79729036 212.40541929 -144.79683337 214.10366591 -144.68359375 216.7890625 C-144.62075195 218.20058594 -144.62075195 218.20058594 -144.55664062 219.640625 C-144.51732422 220.62546875 -144.47800781 221.6103125 -144.4375 222.625 C-144.39431641 223.61757812 -144.35113281 224.61015625 -144.30664062 225.6328125 C-144.20038931 228.08839838 -144.09835036 230.54408703 -144 233 C-141.36 233 -138.72 233 -136 233 C-135.98541748 232.31373535 -135.97083496 231.6274707 -135.95581055 230.92041016 C-135.88149849 227.82136099 -135.78478418 224.72340945 -135.6875 221.625 C-135.66494141 220.54476563 -135.64238281 219.46453125 -135.61914062 218.3515625 C-135.58369141 217.3203125 -135.54824219 216.2890625 -135.51171875 215.2265625 C-135.48553467 214.27346191 -135.45935059 213.32036133 -135.43237305 212.33837891 C-135.28968994 211.56671387 -135.14700684 210.79504883 -135 210 C-131.54754176 207.69836118 -130.05261287 207.65509678 -126 208 C-123.43863779 210.56136221 -123.70333143 211.66561331 -123.5859375 215.2265625 C-123.52792969 216.7734375 -123.52792969 216.7734375 -123.46875 218.3515625 C-123.4378125 219.43179687 -123.406875 220.51203125 -123.375 221.625 C-123.31699219 223.25695313 -123.31699219 223.25695313 -123.2578125 224.921875 C-123.16334154 227.61429745 -123.08057419 230.30712584 -123 233 C-119.37 233 -115.74 233 -112 233 C-111.95101562 231.36289063 -111.90203125 229.72578125 -111.8515625 228.0390625 C-111.77654361 225.901024 -111.7009954 223.76300402 -111.625 221.625 C-111.5940625 220.54476563 -111.563125 219.46453125 -111.53125 218.3515625 C-111.49257813 217.3203125 -111.45390625 216.2890625 -111.4140625 215.2265625 C-111.3826416 214.27346191 -111.3512207 213.32036133 -111.31884766 212.33837891 C-111 210 -111 210 -109 208 C-105.306493 207.79853598 -102.52059568 207.82646811 -99 209 C-98.505 220.88 -98.505 220.88 -98 233 C-97.01 233 -96.02 233 -95 233 C-94.85458033 228.77119589 -94.76588473 224.54303587 -94.6875 220.3125 C-94.6246582 218.51522461 -94.6246582 218.51522461 -94.56054688 216.68164062 C-94.27005968 210.65902734 -94.27005968 210.65902734 -96.10009766 205.08740234 C-97.55511316 203.54790326 -97.55511316 203.54790326 -100 202 C-100.495 201.505 -100.495 201.505 -101 201 C-106.74776837 200.48420464 -106.74776837 200.48420464 -111.875 202.75 C-114.82291241 205.87131902 -116 207.68355738 -116 212 C-116.99 212 -117.98 212 -119 212 C-119.061875 211.29875 -119.12375 210.5975 -119.1875 209.875 C-120.3002593 205.93754402 -122.08808395 203.84720681 -125 201 C-130.63593288 199.00394044 -133.74625032 200.66575926 -137.75 204.8125 Z M-84 204 C-84.02471188 209.07201786 -84.04286564 214.14400071 -84.05493164 219.21606445 C-84.05996158 220.9416566 -84.06678626 222.66724448 -84.07543945 224.39282227 C-84.08756361 226.8725693 -84.09324169 229.35226 -84.09765625 231.83203125 C-84.10281754 232.60400345 -84.10797882 233.37597565 -84.11329651 234.17134094 C-84.11363318 237.3830228 -84.02326578 239.93020266 -83 243 C-82.34 243 -81.68 243 -81 243 C-80.38728535 241.71236616 -79.78549481 240.41953557 -79.1875 239.125 C-78.85105469 238.40570312 -78.51460937 237.68640625 -78.16796875 236.9453125 C-74.91874343 228.75161387 -73.57079721 221.70025065 -73.8125 212.875 C-73.82603516 211.91851563 -73.83957031 210.96203125 -73.85351562 209.9765625 C-73.88840778 207.6504189 -73.93741661 205.3255347 -74 203 C-77.50129871 202.89996289 -80.58093768 203.27021695 -84 204 Z M-48 227 C-48 227.33 -48 227.66 -48 228 C-46.31259486 228.02746229 -44.6250537 228.04660111 -42.9375 228.0625 C-41.99777344 228.07410156 -41.05804687 228.08570313 -40.08984375 228.09765625 C-36.9637086 228.05922387 -36.9637086 228.05922387 -33.75976562 227.51367188 C-30.06486332 227.00886185 -26.47995591 226.79553516 -22.75390625 226.68359375 C-22.09792953 226.66281265 -21.44195282 226.64203156 -20.76609802 226.62062073 C-18.69832454 226.55594062 -16.63043899 226.49662534 -14.5625 226.4375 C-13.14907758 226.39423693 -11.73566593 226.35062035 -10.32226562 226.30664062 C-6.88162529 226.20034484 -3.44086308 226.09885528 0 226 C0 225.34 0 224.68 0 224 C-16.24981208 223.54880915 -31.91264129 224.70442244 -48 227 Z M-59 230 C-55.7 229.67 -52.4 229.34 -49 229 C-49 228.67 -49 228.34 -49 228 C-53.30013434 227.80453935 -55.00889681 228.0044484 -59 230 Z M-56 238 C-56 238.33 -56 238.66 -56 239 C-55.07960938 238.9278125 -54.15921875 238.855625 -53.2109375 238.78125 C-29.9085374 237.07272372 -29.9085374 237.07272372 -25.02734375 238.62890625 C-21.82094473 239.21581937 -19.30609362 238.07101089 -16.25 237.0625 C-15.07953125 236.68222656 -13.9090625 236.30195312 -12.703125 235.91015625 C-11.36507812 235.45962891 -11.36507812 235.45962891 -10 235 C-10 234.67 -10 234.34 -10 234 C-25.5430091 233.89854433 -40.66476516 235.57636714 -56 238 Z M-34.55859375 257.4140625 C-40.42024822 263.44646464 -40.42024822 263.44646464 -43 271 C-39.7 271 -36.4 271 -33 271 C-32.525625 269.88625 -32.05125 268.7725 -31.5625 267.625 C-26.87771058 258.43497755 -20.59525674 252.35850245 -10.88671875 248.828125 C-7.20824645 247.77286637 -3.81769515 247.22025164 0 247 C0 245.68 0 244.36 0 243 C-13.56641962 242.70074074 -24.83232278 248.23721447 -34.55859375 257.4140625 Z M-161 247 C-142.85 247 -124.7 247 -106 247 C-105.67 246.34 -105.34 245.68 -105 245 C-112.65377999 244.94942209 -120.30751713 244.91431816 -127.96142578 244.89013672 C-130.56691091 244.88005936 -133.17238469 244.8663973 -135.77783203 244.84912109 C-139.51597899 244.82494898 -143.25397685 244.8135344 -146.9921875 244.8046875 C-148.16304901 244.79436493 -149.33391052 244.78404236 -150.54025269 244.77340698 C-151.62122223 244.77325592 -152.70219177 244.77310486 -153.81591797 244.77294922 C-154.77078094 244.768508 -155.72564392 244.76406677 -156.70944214 244.75949097 C-159.19739836 244.77779812 -159.19739836 244.77779812 -161 247 Z M-55 247 C-57.7883841 247.24912329 -60.57994218 247.4083422 -63.375 247.5625 C-64.47908203 247.62727539 -64.47908203 247.62727539 -65.60546875 247.69335938 C-67.40348068 247.79843799 -69.20171958 247.89962093 -71 248 C-71 251.3 -71 254.6 -71 258 C-58.42408026 258.98634665 -47.5481059 253.14586858 -37 247 C-37 246.67 -37 246.34 -37 246 C-38.87491693 245.97269538 -40.74995225 245.95346756 -42.625 245.9375 C-43.66914062 245.92589844 -44.71328125 245.91429687 -45.7890625 245.90234375 C-48.96202073 245.99884491 -51.87392151 246.46856666 -55 247 Z M-102 256 C-103.61941053 259.45658332 -104.24713262 262.16836892 -104.22705078 265.97387695 C-104.22689972 266.93449539 -104.22674866 267.89511383 -104.22659302 268.88484192 C-104.21627045 269.9089769 -104.20594788 270.93311188 -104.1953125 271.98828125 C-104.1924826 273.04661667 -104.18965271 274.10495209 -104.18673706 275.19535828 C-104.1755629 278.56785498 -104.15046307 281.94008387 -104.125 285.3125 C-104.11496664 287.6022097 -104.10584141 289.89192357 -104.09765625 292.18164062 C-104.07733619 297.78794603 -104.03818156 303.39367403 -104 309 C-96.08 309 -88.16 309 -80 309 C-79.88492442 302.16706787 -79.78546719 295.33752526 -79.7253418 288.50439453 C-79.70026734 286.18233825 -79.66619908 283.86036035 -79.62280273 281.53857422 C-79.56184195 278.19218559 -79.53371851 274.84684447 -79.51171875 271.5 C-79.48591232 270.4694751 -79.4601059 269.4389502 -79.43351746 268.37719727 C-79.430956 261.72752591 -80.50367387 257.05924983 -85 252 C-91.780303 247.479798 -97.26852409 250.24482746 -102 256 Z M-169 256 C-169 259.96 -169 263.92 -169 268 C-164.54211714 270.22894143 -159.23434132 269.26680822 -154.625 267.875 C-148.17858026 265.5247428 -141.68751863 262.08066535 -137 257 C-138.11347596 255.66003068 -138.11347596 255.66003068 -140.95922852 255.88647461 C-142.89946899 255.89432983 -142.89946899 255.89432983 -144.87890625 255.90234375 C-145.5655687 255.9037587 -146.25223114 255.90517365 -146.95970154 255.90663147 C-149.16067801 255.91224521 -151.36155409 255.92479993 -153.5625 255.9375 C-155.05143083 255.94251324 -156.54036324 255.94707645 -158.02929688 255.95117188 C-161.68623075 255.96221907 -165.34310558 255.97949287 -169 256 Z M-19.9375 264.5625 C-23.93937788 269.47990183 -24.81581135 274.87008228 -26 281 C-32.93 281 -39.86 281 -47 281 C-47 290.24 -47 299.48 -47 309 C-39.08 309 -31.16 309 -23 309 C-22.96261719 306.86917969 -22.92523437 304.73835938 -22.88671875 302.54296875 C-22.84049743 300.4776792 -22.78926634 298.41257047 -22.73754883 296.34741211 C-22.70430999 294.91295372 -22.67627465 293.47836487 -22.65356445 292.04370117 C-22.61999729 289.98039193 -22.56768587 287.91827697 -22.51171875 285.85546875 C-22.48553467 284.61434326 -22.45935059 283.37321777 -22.43237305 282.09448242 C-22 279 -22 279 -20.65942383 277.09106445 C-18.09058463 275.40206307 -15.98642983 275.6822947 -13 276 C-10.13454405 278.86545595 -10.68370372 280.96814756 -10.5859375 284.9765625 C-10.56657135 285.66181 -10.5472052 286.3470575 -10.5272522 287.05307007 C-10.46743169 289.24358644 -10.42106244 291.4341553 -10.375 293.625 C-10.33682237 295.10939802 -10.29777076 296.59377384 -10.2578125 298.078125 C-10.16172916 301.71854685 -10.07770718 305.35913436 -10 309 C-9.01 309 -8.02 309 -7 309 C-6.98018066 307.86457764 -6.96036133 306.72915527 -6.93994141 305.55932617 C-6.86390316 301.34913856 -6.77518314 297.13929737 -6.68261719 292.92944336 C-6.64432005 291.10692176 -6.60946845 289.28432437 -6.578125 287.46166992 C-6.53249021 284.84266059 -6.47449378 282.22417326 -6.4140625 279.60546875 C-6.40251129 278.78974899 -6.39096008 277.97402924 -6.37905884 277.1335907 C-6.27802726 273.26635496 -6.1922681 271.28840215 -4 268 C-2.68 267.34 -1.36 266.68 0 266 C0 262.7 0 259.4 0 256 C-7.71086399 254.98541263 -14.67178035 259.21868705 -19.9375 264.5625 Z M-139 270 C-148.73968451 276.12528599 -157.62513324 277.26862109 -169 278 C-169 279.98 -169 281.96 -169 284 C-165.2751029 284.33348267 -165.2751029 284.33348267 -162.1328125 282.51953125 C-159.61037505 280.72241006 -158.1851136 280.61439677 -155.125 280.5 C-151.73419863 280.26734648 -150.02701789 280.01378464 -146.9375 278.4375 C-140.57138551 275.32216738 -134.52537659 277.06655508 -128 279 C-126.2984375 278.9690625 -126.2984375 278.9690625 -124.5625 278.9375 C-121 279 -121 279 -113 282 C-113 274.74 -113 267.48 -113 260 C-123.45491645 260 -130.49601632 264.31819005 -139 270 Z M-58.625 265.453125 C-62.70963017 266.39366484 -66.8276101 266.65230084 -71 267 C-71 270.3 -71 273.6 -71 277 C-66.05 277 -61.1 277 -56 277 C-54.35 273.04 -52.7 269.08 -51 265 C-53.84013245 263.57993377 -55.69060584 264.65479718 -58.625 265.453125 Z M-181 270 C-188.93705261 272.61698915 -195.69924249 276.46587459 -202 282 C-202 282.66 -202 283.32 -202 284 C-200.783125 283.835 -199.56625 283.67 -198.3125 283.5 C-192.2146274 282.80838825 -186.12812763 282.91475557 -180 283 C-179.7763663 281.58566794 -179.57173524 280.16832382 -179.375 278.75 C-179.25898438 277.96109375 -179.14296875 277.1721875 -179.0234375 276.359375 C-178.99680605 273.67847541 -179.63407916 272.27305911 -181 270 Z M-147 289 C-147 289.66 -147 290.32 -147 291 C-147.515625 290.67 -148.03125 290.34 -148.5625 290 C-151.86224134 288.64625996 -154.47013492 288.67316064 -158 289 C-158.99 290.485 -158.99 290.485 -160 292 C-164.455 292.495 -164.455 292.495 -169 293 C-169 299.27 -169 305.54 -169 312 C-166.03 312 -163.06 312 -160 312 C-159.93941406 310.86820313 -159.87882812 309.73640625 -159.81640625 308.5703125 C-159.73200083 307.08852855 -159.64735283 305.6067584 -159.5625 304.125 C-159.52318359 303.37863281 -159.48386719 302.63226562 -159.44335938 301.86328125 C-159.11328125 296.2265625 -159.11328125 296.2265625 -158 294 C-155.66705225 293.95758277 -153.33297433 293.95907063 -151 294 C-148.88074396 296.11925604 -149.58168983 300.6196093 -149.4375 303.5625 C-149.39431641 304.36880859 -149.35113281 305.17511719 -149.30664062 306.00585938 C-149.20024738 308.00368805 -149.09959112 310.0018207 -149 312 C-148.01 312 -147.02 312 -146 312 C-145.95101562 310.73542969 -145.90203125 309.47085937 -145.8515625 308.16796875 C-145.7765262 306.50779053 -145.70097873 304.84763536 -145.625 303.1875 C-145.5940625 302.35412109 -145.563125 301.52074219 -145.53125 300.66210938 C-145.49257813 299.85966797 -145.45390625 299.05722656 -145.4140625 298.23046875 C-145.3826416 297.49207764 -145.3512207 296.75368652 -145.31884766 295.99291992 C-145 294 -145 294 -143 291 C-139.375 290.8125 -139.375 290.8125 -136 291 C-134.85345518 293.29308963 -134.80270883 294.79909656 -134.68359375 297.3515625 C-134.64169922 298.20234375 -134.59980469 299.053125 -134.55664062 299.9296875 C-134.51732422 300.81914063 -134.47800781 301.70859375 -134.4375 302.625 C-134.39431641 303.5221875 -134.35113281 304.419375 -134.30664062 305.34375 C-134.20043139 307.56234283 -134.09838806 309.7810488 -134 312 C-132.68 312 -131.36 312 -130 312 C-129.67 305.4 -129.34 298.8 -129 292 C-126.03 292 -123.06 292 -120 292 C-120 298.6 -120 305.2 -120 312 C-118.02 312 -116.04 312 -114 312 C-112.82573736 309.65147472 -112.88491827 308.26225935 -112.90234375 305.6484375 C-112.90556641 304.79765625 -112.90878906 303.946875 -112.91210938 303.0703125 C-112.92048828 302.18085937 -112.92886719 301.29140625 -112.9375 300.375 C-112.94201172 299.4778125 -112.94652344 298.580625 -112.95117188 297.65625 C-112.96297409 295.43743352 -112.97943845 293.21874982 -113 291 C-114.98 291 -116.96 291 -119 291 C-119.495 289.515 -119.495 289.515 -120 288 C-125.03511899 286.9929762 -128.23947038 287.02612187 -133 289 C-133 288.34 -133 287.68 -133 287 C-138.5266263 283.31558247 -142.42909744 284.42909744 -147 289 Z M-71 286 C-71 293.59 -71 301.18 -71 309 C-66.05 309 -61.1 309 -56 309 C-56 301.41 -56 293.82 -56 286 C-60.95 286 -65.9 286 -71 286 Z M-198 296 C-198.7425 295.319375 -199.485 294.63875 -200.25 293.9375 C-202.7462259 291.76836611 -202.7462259 291.76836611 -205.25 292.0625 C-207.35994637 292.93497944 -207.35994637 292.93497944 -208 296 C-207.01 296.33 -206.02 296.66 -205 297 C-204.67 302.94 -204.34 308.88 -204 315 C-198.52174919 315.4472136 -198.52174919 315.4472136 -196 314 C-195.67 308.39 -195.34 302.78 -195 297 C-192.36 297 -189.72 297 -187 297 C-184.94077598 299.05922402 -185.58572421 303.21708124 -185.4375 306.0625 C-185.39431641 306.82111328 -185.35113281 307.57972656 -185.30664062 308.36132812 C-185.20026367 310.24065438 -185.09960066 312.12030244 -185 314 C-181.70924004 313.62095792 -181.70924004 313.62095792 -179 312 C-178.91348389 310.58429877 -178.89295096 309.164405 -178.90234375 307.74609375 C-178.90717773 306.46508789 -178.90717773 306.46508789 -178.91210938 305.15820312 C-178.92048828 304.26037109 -178.92886719 303.36253906 -178.9375 302.4375 C-178.94201172 301.53580078 -178.94652344 300.63410156 -178.95117188 299.70507812 C-178.96299775 297.46998686 -178.9794778 295.23502563 -179 293 C-186.48712182 289.0800871 -192.16600003 290.01641029 -198 296 Z M-210 313 C-209 315 -209 315 -209 315 Z M-107 321 C-107 321.66 -107 322.32 -107 323 C-107.99 323 -108.98 323 -110 323 C-110 324.32 -110 325.64 -110 327 C-99.28199692 327.16230158 -88.56428686 327.28662541 -77.84530449 327.3626852 C-72.86778182 327.39919359 -67.89110077 327.44869936 -62.9140625 327.52807617 C-58.10941444 327.60422268 -53.30557499 327.64600831 -48.50037003 327.6641407 C-46.6686645 327.67705945 -44.8370025 327.70228813 -43.00564194 327.7401104 C-40.43622549 327.79105738 -37.87013451 327.79791908 -35.30029297 327.79467773 C-34.54575333 327.81984467 -33.79121368 327.8450116 -33.0138092 327.87094116 C-29.83048898 327.82759133 -27.58349019 327.50936932 -25.15365982 325.38820076 C-23.65362455 323.65008689 -22.28900359 321.8984896 -21 320 C-31.47473017 319.97682477 -41.94945423 319.95905845 -52.42420483 319.94818783 C-57.28810215 319.94297036 -62.15198192 319.93589328 -67.01586914 319.92456055 C-71.71020492 319.91369137 -76.40452383 319.9077146 -81.09887123 319.90512276 C-82.88941018 319.90327579 -84.67994821 319.89966914 -86.47047997 319.89426994 C-88.9792823 319.88700607 -91.488015 319.88601132 -93.99682617 319.88647461 C-94.73625961 319.88287933 -95.47569305 319.87928406 -96.23753357 319.87557983 C-99.95251263 319.88299805 -103.38789284 320.10969947 -107 321 Z M-14 327 C-15.18960732 328.40149017 -16.33834794 329.83899905 -17.4375 331.3125 C-19.48060767 333.90359892 -20.47645826 334.88996388 -23.75415039 335.57885742 C-25.22356079 335.65390503 -25.22356079 335.65390503 -26.72265625 335.73046875 C-27.71144775 335.79000732 -28.70023926 335.8495459 -29.71899414 335.91088867 C-30.47172607 335.94029541 -31.22445801 335.96970215 -32 336 C-32.02526739 343.24486551 -32.0428318 350.48971974 -32.05493164 357.73461914 C-32.05997356 360.20142033 -32.06680691 362.66821852 -32.07543945 365.13500977 C-32.08751125 368.67204529 -32.09322956 372.20904145 -32.09765625 375.74609375 C-32.10281754 376.85649521 -32.10797882 377.96689667 -32.11329651 379.11094666 C-32.11337204 380.13192947 -32.11344757 381.15291229 -32.11352539 382.20483398 C-32.115746 383.10862289 -32.11796661 384.0124118 -32.12025452 384.94358826 C-32.22900462 386.99253581 -32.22900462 386.99253581 -31 388 C-29.58429877 388.08651611 -28.164405 388.10704904 -26.74609375 388.09765625 C-25.89208984 388.09443359 -25.03808594 388.09121094 -24.15820312 388.08789062 C-23.26037109 388.07951172 -22.36253906 388.07113281 -21.4375 388.0625 C-20.08495117 388.05573242 -20.08495117 388.05573242 -18.70507812 388.04882812 C-16.46998686 388.03700225 -14.23502563 388.0205222 -12 388 C-11.98018066 386.72882324 -11.96036133 385.45764648 -11.93994141 384.14794922 C-11.86369114 379.41777217 -11.77500371 374.68789495 -11.68261719 369.95800781 C-11.64440761 367.91347181 -11.6095409 365.86887043 -11.578125 363.82421875 C-11.53230013 360.87997114 -11.4743344 357.93617052 -11.4140625 354.9921875 C-11.39673569 353.6277803 -11.39673569 353.6277803 -11.37905884 352.23580933 C-11.23560549 346.02369054 -10.83692985 341.1269714 -6.625 336.25 C-4 334 -4 334 0 332 C0 328.37 0 324.74 0 321 C-5.7643043 321 -9.4374865 323.61009511 -14 327 Z M-178 325 C-180.43505237 325.21698487 -182.87301384 325.40290745 -185.3125 325.5625 C-186.56675781 325.64628906 -187.82101562 325.73007813 -189.11328125 325.81640625 C-190.06589844 325.87699219 -191.01851563 325.93757813 -192 326 C-188.56000081 329.19329171 -186.10621411 329.36702031 -181.48730469 329.34057617 C-180.84298492 329.34101425 -180.19866516 329.34145233 -179.53482056 329.34190369 C-177.41352619 329.33982024 -175.29303062 329.31651181 -173.171875 329.29296875 C-171.69786002 329.28737118 -170.22383945 329.28310184 -168.74981689 329.28010559 C-164.87646994 329.26866941 -161.00346224 329.23921314 -157.13024902 329.20599365 C-153.17542103 329.17526611 -149.22053804 329.16159454 -145.265625 329.14648438 C-137.51026226 329.11434196 -129.75517873 329.06316085 -122 329 C-122 327.35 -122 325.7 -122 324 C-129.17162317 323.97463419 -136.34323476 323.95712643 -143.51489258 323.94506836 C-145.9543501 323.94004122 -148.39380461 323.9332186 -150.83325195 323.92456055 C-154.34066511 323.91242417 -157.84803841 323.90675545 -161.35546875 323.90234375 C-162.99010323 323.89460182 -162.99010323 323.89460182 -164.65776062 323.88670349 C-165.67844131 323.88662796 -166.69912201 323.88655243 -167.75073242 323.88647461 C-169.09309212 323.88314369 -169.09309212 323.88314369 -170.46257019 323.87974548 C-173.06991391 324.00331338 -175.45115261 324.45412362 -178 325 Z M-222.125 332.5625 C-223.053125 333.7690625 -223.053125 333.7690625 -224 335 C-225.98 335.99 -225.98 335.99 -228 337 C-228 353.83 -228 370.66 -228 388 C-225.36 388 -222.72 388 -220 388 C-220 383.71 -220 379.42 -220 375 C-214.06 375 -208.12 375 -202 375 C-202 379.29 -202 383.58 -202 388 C-199.66705225 388.04241723 -197.33297433 388.04092937 -195 388 C-193.77099538 386.99253581 -193.77099538 386.99253581 -193.87974548 384.94358826 C-193.88196609 384.03979935 -193.88418671 383.13601044 -193.88647461 382.20483398 C-193.88655014 381.18385117 -193.88662567 380.16286835 -193.88670349 379.11094666 C-193.89186478 378.0005452 -193.89702606 376.89014374 -193.90234375 375.74609375 C-193.9037587 374.61551041 -193.90517365 373.48492706 -193.90663147 372.32008362 C-193.91224981 368.69252935 -193.92480542 365.06503576 -193.9375 361.4375 C-193.94251264 358.98502693 -193.94707595 356.5325529 -193.95117188 354.08007812 C-193.9622252 348.05336455 -193.97898116 342.02668661 -194 336 C-194.91458984 335.84337891 -194.91458984 335.84337891 -195.84765625 335.68359375 C-198 335 -198 335 -200.4375 332.0625 C-203.7552016 328.09744199 -205.89518831 327.22391614 -210.9375 326.6875 C-215.86209823 327.19001002 -218.95934694 328.74509484 -222.125 332.5625 Z M-240 334 C-242.21163592 335.79388224 -242.21163592 335.79388224 -242.24050903 338.21463013 C-242.23606781 339.13396332 -242.23162659 340.05329651 -242.22705078 341.00048828 C-242.22689972 342.04141632 -242.22674866 343.08234436 -242.22659302 344.15481567 C-242.21627045 345.28192963 -242.20594788 346.40904358 -242.1953125 347.5703125 C-242.1924826 348.72167694 -242.18965271 349.87304138 -242.18673706 351.05929565 C-242.17551408 354.74796812 -242.15040556 358.43640053 -242.125 362.125 C-242.11497294 364.62109025 -242.10584662 367.1171843 -242.09765625 369.61328125 C-242.07556784 375.74226984 -242.04206947 381.87111777 -242 388 C-240.35 388 -238.7 388 -237 388 C-237 370.18 -237 352.36 -237 334 C-237.99 334 -238.98 334 -240 334 Z M-110 336 C-110 348.87 -110 361.74 -110 375 C-104.06 375 -98.12 375 -92 375 C-91.97421875 373.09734375 -91.9484375 371.1946875 -91.921875 369.234375 C-91.86560098 366.73956017 -91.8082535 364.24476939 -91.75 361.75 C-91.73582031 360.49574219 -91.72164062 359.24148438 -91.70703125 357.94921875 C-91.67480469 356.74394531 -91.64257812 355.53867188 -91.609375 354.296875 C-91.5779541 352.63156738 -91.5779541 352.63156738 -91.54589844 350.93261719 C-90.88635309 347.38947825 -89.78890935 346.20885278 -87 344 C-83.1361298 342.59425796 -79.906385 342.62562359 -76.125 344.1875 C-73.11383799 346.75584407 -72.13816748 348.80875508 -71.68115234 352.74902344 C-71.64973145 353.77543945 -71.61831055 354.80185547 -71.5859375 355.859375 C-71.52792969 357.53193359 -71.52792969 357.53193359 -71.46875 359.23828125 C-71.4378125 360.39714844 -71.406875 361.55601562 -71.375 362.75 C-71.31699219 364.51150391 -71.31699219 364.51150391 -71.2578125 366.30859375 C-71.1636018 369.20557268 -71.07798398 372.10254626 -71 375 C-69.68 375 -68.36 375 -67 375 C-65.35393233 371.70786465 -65.99205946 368.0501964 -66.0625 364.4375 C-66.15576745 351.85136879 -66.15576745 351.85136879 -64 346 C-61.28405359 343.51038245 -59.62945168 343.07868146 -56 342.625 C-52.52063166 343.05992104 -50.72793034 343.80250056 -48 346 C-46.20371742 349.63308576 -45.7151471 352.71124872 -45.5859375 356.73828125 C-45.54726563 357.80498047 -45.50859375 358.87167969 -45.46875 359.97070312 C-45.4378125 361.07349609 -45.406875 362.17628906 -45.375 363.3125 C-45.33632813 364.43462891 -45.29765625 365.55675781 -45.2578125 366.71289062 C-45.16377989 369.47509852 -45.07812659 372.237304 -45 375 C-43.68 375 -42.36 375 -41 375 C-41 362.13 -41 349.26 -41 336 C-63.77 336 -86.54 336 -110 336 Z M-185 338 C-185 350.21 -185 362.42 -185 375 C-182.03 375 -179.06 375 -176 375 C-175.9906543 374.29391602 -175.98130859 373.58783203 -175.97167969 372.86035156 C-175.91794341 369.65619455 -175.83430243 366.45349243 -175.75 363.25 C-175.73582031 362.13882812 -175.72164062 361.02765625 -175.70703125 359.8828125 C-175.65869141 358.27792969 -175.65869141 358.27792969 -175.609375 356.640625 C-175.5779541 355.16384277 -175.5779541 355.16384277 -175.54589844 353.65722656 C-174.85555785 350.29691041 -173.68287866 349.0818165 -171 347 C-166.89222251 346.49700684 -165.49124017 346.67250655 -162 349 C-161.56762695 351.61376953 -161.56762695 351.61376953 -161.48828125 354.8828125 C-161.43510742 356.63271484 -161.43510742 356.63271484 -161.38085938 358.41796875 C-161.35830078 359.64128906 -161.33574219 360.86460937 -161.3125 362.125 C-161.26125977 363.97158203 -161.26125977 363.97158203 -161.20898438 365.85546875 C-161.12628436 368.9035551 -161.05720573 371.95134571 -161 375 C-160.01 375 -159.02 375 -158 375 C-157.9906543 374.29391602 -157.98130859 373.58783203 -157.97167969 372.86035156 C-157.91794341 369.65619455 -157.83430243 366.45349243 -157.75 363.25 C-157.73582031 362.13882812 -157.72164062 361.02765625 -157.70703125 359.8828125 C-157.65869141 358.27792969 -157.65869141 358.27792969 -157.609375 356.640625 C-157.58842773 355.65610352 -157.56748047 354.67158203 -157.54589844 353.65722656 C-156.8598268 350.31769 -155.63818729 349.09516682 -153 347 C-150.05013684 346.66068364 -147.95436196 347.32194971 -145 348 C-143.68638302 350.62723396 -143.78746091 352.72610561 -143.68359375 355.6640625 C-143.64169922 356.78554687 -143.59980469 357.90703125 -143.55664062 359.0625 C-143.51732422 360.238125 -143.47800781 361.41375 -143.4375 362.625 C-143.39431641 363.80835938 -143.35113281 364.99171875 -143.30664062 366.2109375 C-143.20032574 369.14050328 -143.09829358 372.07015588 -143 375 C-142.01 375 -141.02 375 -140 375 C-139.96241577 373.88757935 -139.96241577 373.88757935 -139.92407227 372.75268555 C-139.80813868 369.39744672 -139.68540015 366.04249056 -139.5625 362.6875 C-139.52318359 361.52025391 -139.48386719 360.35300781 -139.44335938 359.15039062 C-139.38051758 357.47299805 -139.38051758 357.47299805 -139.31640625 355.76171875 C-139.27974854 354.73006592 -139.24309082 353.69841309 -139.20532227 352.63549805 C-139 350 -139 350 -138 347 C-136.741875 346.979375 -135.48375 346.95875 -134.1875 346.9375 C-133.47980469 346.92589844 -132.77210938 346.91429687 -132.04296875 346.90234375 C-130 347 -130 347 -127 348 C-125.68638302 350.62723396 -125.78746091 352.72610561 -125.68359375 355.6640625 C-125.64169922 356.78554687 -125.59980469 357.90703125 -125.55664062 359.0625 C-125.51732422 360.238125 -125.47800781 361.41375 -125.4375 362.625 C-125.39431641 363.80835938 -125.35113281 364.99171875 -125.30664062 366.2109375 C-125.20032574 369.14050328 -125.09829358 372.07015588 -125 375 C-124.01 375 -123.02 375 -122 375 C-122 362.79 -122 350.58 -122 338 C-142.79 338 -163.58 338 -185 338 Z M-185 384 C-185.33 385.32 -185.66 386.64 -186 388 C-164.88 388 -143.76 388 -122 388 C-122 386.68 -122 385.36 -122 384 C-142.79 384 -163.58 384 -185 384 Z M-110 384 C-110 385.32 -110 386.64 -110 388 C-87.23 388 -64.46 388 -41 388 C-41 386.68 -41 385.36 -41 384 C-63.77 384 -86.54 384 -110 384 Z " fill="#0B0B0B" transform="translate(568,829)"/>
<path d="M0 0 C14 0 14 0 16.92773438 2.28125 C17.75241211 3.87453125 17.75241211 3.87453125 18.59375 5.5 C18.91299438 6.07806396 19.23223877 6.65612793 19.56115723 7.25170898 C20.59250606 9.14492496 21.54373332 11.06794128 22.5 13 C23.21321315 14.33760243 23.93205059 15.67221992 24.65625 17.00390625 C26.11834851 19.70527008 27.55374462 22.41821755 28.96875 25.14453125 C31.78686923 30.54237493 34.89273373 35.76498548 38 41 C39.13304549 42.94051075 40.26453018 44.8819336 41.39453125 46.82421875 C45.47974896 53.82761208 49.58424916 60.81966463 53.6875 67.8125 C60.16508212 78.85191792 66.60656146 89.9115958 73 101 C75.81784037 98.4916488 77.45723723 95.70077062 79.30078125 92.42578125 C79.94088135 91.29575684 80.58098145 90.16573242 81.24047852 89.00146484 C81.57782013 88.40082214 81.91516174 87.80017944 82.26272583 87.18133545 C84.05593474 83.98901802 85.86525434 80.80583354 87.671875 77.62109375 C88.03801407 76.97456848 88.40415314 76.32804321 88.78138733 75.66192627 C92.1585711 69.70368452 95.60036965 63.78426662 99.0625 57.875 C103.30560793 50.62764335 107.52500732 43.36777789 111.70532227 36.08398438 C112.97384361 33.88089046 114.24896353 31.68158134 115.53100586 29.48632812 C118.52880374 24.35014531 121.43928757 19.2048986 124.15625 13.9140625 C124.65946777 12.97594727 125.16268555 12.03783203 125.68115234 11.07128906 C126.61283785 9.3314286 127.50708782 7.5707484 128.35400391 5.78808594 C129.6328125 3.4609375 129.6328125 3.4609375 133 0 C137.29 0 141.58 0 146 0 C146 46.2 146 92.4 146 140 C141.05 140 136.1 140 131 140 C130.67 104.69 130.34 69.38 130 33 C125.71 40.59 121.42 48.18 117 56 C114.39202283 60.44989107 111.77672124 64.88937731 109.125 69.3125 C103.672159 78.456925 98.3006309 87.64155694 93 96.875 C79.33018868 120.66981132 79.33018868 120.66981132 77 123 C74.32941149 123.14115161 71.67567762 123.04247107 69 123 C68.61368408 122.32759277 68.22736816 121.65518555 67.8293457 120.96240234 C60.64124905 108.45831926 53.42650307 95.97303605 46.07104492 83.56640625 C41.39828994 75.68331267 36.75786937 67.78157324 32.125 59.875 C31.59244598 58.96637711 31.59244598 58.96637711 31.0491333 58.03939819 C26.35614315 50.03203316 21.6765794 42.01699325 17 34 C16.67 68.98 16.34 103.96 16 140 C10.72 140 5.44 140 0 140 C0 93.8 0 47.6 0 0 Z " fill="#000000" transform="translate(945,1056)"/>
<path d="M0 0 C14 0 14 0 17.31640625 2.5 C18.48071289 4.16430664 18.48071289 4.16430664 19.5625 6 C20.44491336 7.29242025 21.33046306 8.58270338 22.21875 9.87109375 C22.88970703 10.88792236 22.88970703 10.88792236 23.57421875 11.92529297 C26.01774796 15.4809627 28.8042624 18.74924384 31.5625 22.0625 C36.29423295 27.84365656 40.87688885 33.71513992 45.40625 39.65625 C48.36211063 43.49886881 51.43107807 47.2475131 54.5 51 C59.25268786 56.81129119 63.86651993 62.70131532 68.41796875 68.671875 C71.30647538 72.42704632 74.31000038 76.08581947 77.3125 79.75 C83.57957796 87.40312914 89.60002396 95.23109332 95.55883789 103.12573242 C97.34018136 105.44241441 99.1744149 107.71801862 101 110 C101.33 73.7 101.66 37.4 102 0 C107.28 0 112.56 0 118 0 C118 46.2 118 92.4 118 140 C104 140 104 140 99.921875 136.73828125 C98.81971702 135.29623175 97.76321973 133.8183701 96.75 132.3125 C96.17193604 131.53592041 95.59387207 130.75934082 94.99829102 129.95922852 C93.83531617 128.39101122 92.69037322 126.8092415 91.56494141 125.21386719 C89.44464491 122.21435882 87.19594107 119.3344341 84.9375 116.4375 C83.75994141 114.88869141 83.75994141 114.88869141 82.55859375 113.30859375 C79.61926034 109.47381883 76.5589675 105.73952574 73.5 102 C69.57381116 97.19828472 65.69816923 92.37008807 61.9375 87.4375 C58.37116242 82.76317404 54.74393535 78.14666279 51.0625 73.5625 C45.78978662 66.99686073 40.57333068 60.38945879 35.38085938 53.76025391 C33.94945737 51.93557065 32.51428129 50.11391193 31.078125 48.29296875 C30.5941626 47.67881104 30.1102002 47.06465332 29.61157227 46.43188477 C28.70127935 45.27689113 27.7903697 44.12238313 26.87866211 42.96850586 C23.51301163 38.69416202 20.267092 34.35612267 17 30 C16.67 66.3 16.34 102.6 16 140 C10.72 140 5.44 140 0 140 C0 93.8 0 47.6 0 0 Z " fill="#000000" transform="translate(914,855)"/>
<path d="M0 0 C0.96083496 0.00491455 1.92166992 0.0098291 2.91162109 0.01489258 C23.27640938 0.34820916 41.60716073 7.87446444 55.96508789 22.42285156 C66.07840909 33.24800456 73.8497793 49.34424568 74.25 64.3125 C74.30027344 65.39660156 74.35054687 66.48070312 74.40234375 67.59765625 C74.94938305 88.75713656 68.35810859 107.39161767 54.0625 123.0625 C38.74072459 137.28733537 18.30895252 143.78561248 -2.32421875 143.5234375 C-18.98407254 142.49763122 -34.63398528 137.94527613 -47.75 127.3125 C-48.91982422 126.38630859 -48.91982422 126.38630859 -50.11328125 125.44140625 C-63.51836406 114.24421943 -71.30590256 97.78007021 -73.5 80.5625 C-73.60331023 79.14714991 -73.6869904 77.73021601 -73.75 76.3125 C-73.8015625 75.59578125 -73.853125 74.8790625 -73.90625 74.140625 C-74.6454553 55.78369331 -68.35142475 37.73785131 -56.5703125 23.71875 C-41.64312746 7.86167474 -21.69786351 -0.13246793 0 0 Z M-44.12890625 33.00390625 C-49.38466461 39.64503749 -53.06713794 46.28645888 -55.75 54.3125 C-55.99492188 55.0240625 -56.23984375 55.735625 -56.4921875 56.46875 C-60.65166752 71.28333637 -57.74887378 87.95289335 -50.66796875 101.29296875 C-42.57735415 114.03033145 -30.54994369 123.68470892 -15.75 127.3125 C1.97436749 130.7207016 19.18979368 129.27976392 34.5625 119 C47.63678744 109.1677968 55.71708023 96.66792478 58.25 80.3125 C59.19801871 62.6465359 56.12939838 46.29167257 44.4375 32.375 C33.45562525 21.01371307 18.96748909 14.50309387 3.22216797 14.02905273 C-14.75000803 13.79408361 -31.93747149 19.21096938 -44.12890625 33.00390625 Z " fill="#000000" transform="translate(1498.75,1054.6875)"/>
<path d="M0 0 C82.47784392 0 82.47784392 0 97.55078125 14.3515625 C108.31695842 26.59772629 110.86505646 40.06053378 110 56 C108.38122941 67.56460684 103.16312879 77.63356313 94 85 C89.10537967 88.39094387 84.88455639 90.92930197 79 92 C85.54522621 101.67589277 92.13619066 111.29686867 99.09033203 120.68432617 C112 138.13840741 112 138.13840741 112 140 C105.96948282 141.15737198 99.91381646 142.10596817 94 140 C88.8295241 135.70627399 85.78564585 129.36487659 82.53222656 123.59179688 C80.15821044 119.57609338 77.35618303 115.93094898 74.5 112.25 C64 98.49404961 64 98.49404961 64 96 C47.83 96 31.66 96 15 96 C15 110.52 15 125.04 15 140 C10.05 140 5.1 140 0 140 C0 93.8 0 47.6 0 0 Z M15 14 C15 36.77 15 59.54 15 83 C25.1784375 83.0928125 25.1784375 83.0928125 35.5625 83.1875 C38.72501343 83.22846802 38.72501343 83.22846802 41.95141602 83.27026367 C57.83801133 83.39024126 73.52255638 83.04599526 85.8125 71.6875 C93.19411325 63.8434655 94.48634796 55.35876613 94.2734375 44.8984375 C93.6966778 36.6754921 90.90182969 29.77393239 85.18359375 23.78515625 C75.28064417 15.68918494 64.08456674 13.6775866 51.71875 13.8046875 C50.31544434 13.80770874 50.31544434 13.80770874 48.88378906 13.81079102 C45.42247545 13.82117608 41.96123228 13.84909806 38.5 13.875 C30.745 13.91625 22.99 13.9575 15 14 Z " fill="#000000" transform="translate(1294,1056)"/>
<path d="M0 0 C31.68 0 63.36 0 96 0 C96 4.62 96 9.24 96 14 C69.27 14 42.54 14 15 14 C15 29.84 15 45.68 15 62 C39.09 62 63.18 62 88 62 C88 66.62 88 71.24 88 76 C63.91 76 39.82 76 15 76 C15 92.83 15 109.66 15 127 C42.72 127 70.44 127 99 127 C99 131.29 99 135.58 99 140 C66.33 140 33.66 140 0 140 C0 93.8 0 47.6 0 0 Z " fill="#000000" transform="translate(781,855)"/>
<path d="M0 0 C5.28 0 10.56 0 16 0 C25.19255058 19.49342285 34.24271327 39.04402686 43.13265991 58.67720032 C46.38437951 65.8554113 49.65942064 73.02290363 52.93774414 80.18899536 C53.93121865 82.3612656 54.92373059 84.5339733 55.91601562 86.70678711 C59.06095306 93.59080772 62.21418552 100.47078969 65.38938904 107.34091187 C66.88235682 110.57247995 68.37141712 113.80584131 69.86013794 117.03936768 C70.57226598 118.5832027 71.28632416 120.12614902 72.00241089 121.66815186 C72.99471653 123.80522288 73.98044007 125.94521764 74.96484375 128.0859375 C75.25883057 128.7145166 75.55281738 129.3430957 75.85571289 129.99072266 C77.42643805 133.4254502 78.24482191 136.22410954 79 140 C73.72 140 68.44 140 63 140 C56.94991202 128.11982724 51.48442033 116.18760073 46 104 C20.59 103.67 -4.82 103.34 -31 103 C-31.99 105.97 -32.98 108.94 -34 112 C-34.92683641 114.2642604 -35.88620604 116.51557022 -36.8828125 118.75 C-37.41003906 119.93464844 -37.93726563 121.11929687 -38.48046875 122.33984375 C-38.75036621 122.94038574 -39.02026367 123.54092773 -39.29833984 124.15966797 C-40.13496609 126.02218676 -40.96439667 127.88779241 -41.79296875 129.75390625 C-45.86221168 138.86221168 -45.86221168 138.86221168 -47 140 C-49.86267567 140.07325168 -52.700719 140.09238205 -55.5625 140.0625 C-56.36880859 140.05798828 -57.17511719 140.05347656 -58.00585938 140.04882812 C-60.00393756 140.03700518 -62.00197783 140.01906914 -64 140 C-56.46932594 123.16057606 -48.79019784 106.38953669 -41.11279297 89.61669922 C-38.06964938 82.96785079 -35.03014469 76.31733934 -31.99047852 69.66690063 C-31.00094833 67.5020747 -30.0112453 65.33732787 -29.02148438 63.17260742 C-25.93612621 56.42442449 -22.85158584 49.67587121 -19.76986694 42.92602539 C-18.33704331 39.78786187 -16.90376667 36.64990535 -15.47045898 33.51196289 C-14.79673187 32.03664222 -14.12321908 30.56122365 -13.44995117 29.08569336 C-9.01542872 19.36719656 -4.52862523 9.67505518 0 0 Z M7 18 C2.17984975 28.69400403 -2.63575685 39.39003562 -7.44358826 50.08958435 C-9.60656326 54.90271999 -11.77274955 59.71437184 -13.94418335 64.5236969 C-15.32106803 67.57645464 -16.69135642 70.63215948 -18.0625 73.6875 C-18.55588867 74.77651611 -19.04927734 75.86553223 -19.55761719 76.98754883 C-20.00395508 77.9855249 -20.45029297 78.98350098 -20.91015625 80.01171875 C-21.48455444 81.28728638 -21.48455444 81.28728638 -22.07055664 82.58862305 C-23.22117327 85.37061935 -23.22117327 85.37061935 -24 90 C-2.88 90 18.24 90 40 90 C37.52768616 82.5115744 37.52768616 82.5115744 34.50390625 75.3828125 C34.033479 74.37669922 33.56305176 73.37058594 33.07836914 72.33398438 C32.57813232 71.27501953 32.07789551 70.21605469 31.5625 69.125 C26.60698849 58.52513872 21.79767244 47.87634416 17.09790039 37.16064453 C14.24111855 30.67747046 11.23804796 24.30182751 8 18 C7.67 18 7.34 18 7 18 Z " fill="#000000" transform="translate(844,1056)"/>
<path d="M0 0 C5.28 0 10.56 0 16 0 C16.00364563 1.13402252 16.00729126 2.26804504 16.01104736 3.43643188 C16.04814671 14.17502491 16.10608121 24.91333514 16.18390274 35.65171242 C16.22324654 41.17113988 16.25549895 46.69041092 16.27099609 52.20996094 C16.28624932 57.54644567 16.32084706 62.88249997 16.36830902 68.21879196 C16.38303397 70.24467583 16.39103585 72.27062118 16.39188385 74.29655838 C16.4056249 90.67884802 17.16676714 105.3648814 29 118 C38.07866172 125.85723534 50.87360805 127.42286655 62.453125 126.8203125 C73.89654769 125.58522943 83.89812452 121.80881569 91.3125 112.6953125 C97.58038177 102.68411246 99.1229203 91.59005958 99.20532227 80.03540039 C99.21522186 79.16631042 99.22512146 78.29722046 99.23532104 77.40179443 C99.26672066 74.55044204 99.29160764 71.69907304 99.31640625 68.84765625 C99.33699441 66.86225469 99.35799136 64.87685734 99.37937927 62.89146423 C99.43440768 57.68178726 99.4839013 52.47207199 99.53222656 47.2623291 C99.58258253 41.93982562 99.63819482 36.61737731 99.69335938 31.29492188 C99.80070552 20.86332846 99.90220219 10.431687 100 0 C104.95 0 109.9 0 115 0 C115.09316871 11.97967908 115.16400105 23.95927027 115.20724869 35.9392395 C115.22801784 41.50356961 115.25613794 47.06764968 115.30175781 52.63183594 C115.34559938 58.01353369 115.36921709 63.39499274 115.37950897 68.77685547 C115.3868322 70.81790925 115.40113011 72.85895174 115.42292023 74.89990234 C115.62652697 94.78284213 113.44070396 112.83380376 99.1953125 128 C87.09697117 139.02197644 70.75086862 142.56279574 54.77734375 142.1875 C41.24789007 141.27411916 29.94427543 138.09698426 19 130 C18.13375 129.4225 17.2675 128.845 16.375 128.25 C5.31130097 117.76860092 0.2321046 102.43534775 -0.17469788 87.45939636 C-0.25676748 81.90644668 -0.22522144 76.35404097 -0.1953125 70.80078125 C-0.19157645 68.75384154 -0.18873228 66.70690003 -0.18673706 64.65995789 C-0.17914718 59.3055822 -0.15953919 53.9513172 -0.1373291 48.59698486 C-0.11676996 43.12001034 -0.10771393 37.64301772 -0.09765625 32.16601562 C-0.07628843 21.44396212 -0.04220936 10.72199031 0 0 Z " fill="#000000" transform="translate(1135,1056)"/>
<path d="M0 0 C-1.65 4.29 -3.3 8.58 -5 13 C-8.47300764 11.61079694 -11.76461641 10.17247483 -15.125 8.5625 C-29.6469394 1.93674299 -45.45660793 -0.05058472 -61 4 C-68.62323518 6.86099833 -74.04261048 9.76752951 -78 17 C-79.94961572 22.84884715 -79.74233013 29.4946358 -78 35.375 C-69.02994023 47.14820345 -53.05473489 49.48729405 -39.53051758 52.99731445 C-8.43797116 61.10210725 -8.43797116 61.10210725 1.80859375 74.91015625 C6.63184721 83.37061723 6.25495638 94.73316086 4.3828125 104.08203125 C1.45986274 112.29474408 -4.90696003 119.56660966 -12.4765625 123.875 C-21.46411704 127.88183546 -31.12885989 130.77565591 -41 131 C-41.9178125 131.03867188 -42.835625 131.07734375 -43.78125 131.1171875 C-61.68657262 131.54126093 -83.27580115 127.58401072 -97.25 115.4375 C-99 113 -99 113 -99.0625 110.6875 C-97.60482267 107.00043382 -95.86531887 103.4963884 -94 100 C-91.09695652 101.37034044 -88.5544037 102.95865607 -85.9375 104.8125 C-69.97322454 115.49007413 -52.15796934 117.95586701 -33.3671875 115.53125 C-26.19502869 113.99042816 -19.16762871 111.14431424 -14.59375 105.16015625 C-11.46386016 99.87287805 -10.40550558 95.07954669 -11 89 C-12.81655206 82.80235178 -15.74803261 79.4700803 -21 76 C-30.70019921 71.16781173 -41.06356037 68.66800116 -51.50390625 66.02319336 C-67.67424039 61.90057709 -81.54560769 57.35663058 -92.5 43.9375 C-96.731879 35.65007029 -97.38438532 26.04095411 -95.3125 17 C-92.12174713 7.42774138 -86.71711588 0.16298978 -78 -5 C-52.38650563 -17.77136943 -24.17412521 -13.40476391 0 0 Z " fill="#000000" transform="translate(1691,1067)"/>
<path d="M0 0 C37.62 0 75.24 0 114 0 C114 4.62 114 9.24 114 14 C97.83 14 81.66 14 65 14 C65 55.58 65 97.16 65 140 C59.72 140 54.44 140 49 140 C49 98.42 49 56.84 49 14 C32.83 14 16.66 14 0 14 C0 9.38 0 4.76 0 0 Z " fill="#000000" transform="translate(1054,855)"/>
<path d="M0 0 C2.90717073 2.21863029 3.83981643 3.51944929 5 7 C5.09476385 9.05297843 5.1307224 11.10889918 5.1328125 13.1640625 C5.13410156 14.36804687 5.13539063 15.57203125 5.13671875 16.8125 C5.13285156 18.070625 5.12898438 19.32875 5.125 20.625 C5.13080078 22.52378906 5.13080078 22.52378906 5.13671875 24.4609375 C5.13542969 25.66234375 5.13414062 26.86375 5.1328125 28.1015625 C5.13168457 29.20838379 5.13055664 30.31520508 5.12939453 31.45556641 C5 34 5 34 4 35 C1.3226862 35.09981214 -1.32304175 35.13879875 -4 35.125 C-5.12535156 35.13080078 -5.12535156 35.13080078 -6.2734375 35.13671875 C-11.87338947 35.12661053 -11.87338947 35.12661053 -13 34 C-13.25491663 29.40164669 -13.18523285 24.79207531 -13.1875 20.1875 C-13.19974609 18.89005859 -13.21199219 17.59261719 -13.22460938 16.25585938 C-13.22654297 15.00998047 -13.22847656 13.76410156 -13.23046875 12.48046875 C-13.23457764 11.33473389 -13.23868652 10.18899902 -13.24291992 9.00854492 C-13.00604996 6.07492834 -12.59188211 4.44107588 -11 2 C-7.56999354 -0.54074553 -4.14108223 -0.44368738 0 0 Z " fill="#0D0D0D" transform="translate(361,1164)"/>
<path d="M0 0 C2.171875 1.484375 2.171875 1.484375 4 4 C4.48587453 6.93313211 4.3777438 9.78732645 4.25 12.75 C4.23195313 13.54277344 4.21390625 14.33554688 4.1953125 15.15234375 C4.14833082 17.10208348 4.07659044 19.05119878 4 21 C-0.62 21 -5.24 21 -10 21 C-10.10812003 18.24894578 -10.18734945 15.50214913 -10.25 12.75 C-10.28351563 11.97269531 -10.31703125 11.19539063 -10.3515625 10.39453125 C-10.45027902 4.61961472 -10.45027902 4.61961472 -8.171875 1.484375 C-5.209116 -0.54053223 -3.51696851 -0.58616142 0 0 Z " fill="#070707" transform="translate(479,1112)"/>
<path d="M0 0 C2.171875 1.63671875 2.171875 1.63671875 4 4 C4.390625 7.015625 4.390625 7.015625 4.25 10.25 C4.21390625 11.32765625 4.1778125 12.4053125 4.140625 13.515625 C4.07101562 14.74539063 4.07101562 14.74539063 4 16 C-5.76470588 18.11764706 -5.76470588 18.11764706 -10 16 C-10.1080023 13.89695523 -10.18558987 11.79233091 -10.25 9.6875 C-10.31960938 7.92986328 -10.31960938 7.92986328 -10.390625 6.13671875 C-10 3 -10 3 -8.171875 1.109375 C-5.20073738 -0.40825645 -3.29286295 -0.48020918 0 0 Z " fill="#070707" transform="translate(479,1088)"/>
<path d="M0 0 C17.16 0 34.32 0 52 0 C52 2.31 52 4.62 52 7 C51.34 7 50.68 7 50 7 C50 5.35 50 3.7 50 2 C33.5 2 17 2 0 2 C0 1.34 0 0.68 0 0 Z " fill="#424242" transform="translate(396,1151)"/>
<path d="M0 0 C2.4375 0.75 2.4375 0.75 5 2 C6.07112854 4.91551672 6.11741663 7.68300603 6.09765625 10.765625 C6.09443359 11.65507813 6.09121094 12.54453125 6.08789062 13.4609375 C6.07951172 14.38132812 6.07113281 15.30171875 6.0625 16.25 C6.05798828 17.18585937 6.05347656 18.12171875 6.04882812 19.0859375 C6.03706918 21.39069041 6.02063426 23.69531227 6 26 C5.34 26.33 4.68 26.66 4 27 C3.98541748 26.43079834 3.97083496 25.86159668 3.95581055 25.27514648 C3.88070835 22.66196172 3.78425811 20.04996901 3.6875 17.4375 C3.66494141 16.54224609 3.64238281 15.64699219 3.61914062 14.72460938 C3.39287992 9.10922997 2.56515233 5.01339423 0 0 Z " fill="#0E0E0E" transform="translate(564,906)"/>
<path d="M0 0 C0 0.99 0 1.98 0 3 C-0.33 3.33 -0.66 3.66 -1 4 C-1.15764405 5.77869726 -1.25100677 7.56318476 -1.31640625 9.34765625 C-1.35830078 10.42724609 -1.40019531 11.50683594 -1.44335938 12.61914062 C-1.48267578 13.75544922 -1.52199219 14.89175781 -1.5625 16.0625 C-1.60568359 17.20267578 -1.64886719 18.34285156 -1.69335938 19.51757812 C-1.79982839 22.34492195 -1.90184207 25.17235738 -2 28 C-2.66 28 -3.32 28 -4 28 C-4.11618764 24.08358289 -4.18724654 20.16760899 -4.25 16.25 C-4.28351562 15.13882813 -4.31703125 14.02765625 -4.3515625 12.8828125 C-4.36445312 11.81289063 -4.37734375 10.74296875 -4.390625 9.640625 C-4.41157227 8.65610352 -4.43251953 7.67158203 -4.45410156 6.65722656 C-3.88098889 3.30359304 -2.56715917 2.14077979 0 0 Z " fill="#2A2A2A" transform="translate(549,906)"/>
<path d="M0 0 C-0.33 0.66 -0.66 1.32 -1 2 C-3.31 2.33 -5.62 2.66 -8 3 C-8.33 10.92 -8.66 18.84 -9 27 C-12.96 27 -16.92 27 -21 27 C-21 26.67 -21 26.34 -21 26 C-17.37 26 -13.74 26 -10 26 C-10.05220703 23.56173828 -10.05220703 23.56173828 -10.10546875 21.07421875 C-10.13360394 18.94532281 -10.16090438 16.81641573 -10.1875 14.6875 C-10.21263672 13.61564453 -10.23777344 12.54378906 -10.26367188 11.43945312 C-10.27817383 9.89741211 -10.27817383 9.89741211 -10.29296875 8.32421875 C-10.3086792 7.37635498 -10.32438965 6.42849121 -10.34057617 5.4519043 C-10 3 -10 3 -8.7121582 1.17895508 C-5.95695252 -0.71821992 -3.23506066 -0.18311664 0 0 Z " fill="#212121" transform="translate(466,1036)"/>
<path d="M0 0 C0 0.66 0 1.32 0 2 C0.99 2.33 1.98 2.66 3 3 C2.30132813 2.97679687 1.60265625 2.95359375 0.8828125 2.9296875 C-0.02726563 2.91164063 -0.93734375 2.89359375 -1.875 2.875 C-2.77992188 2.85179687 -3.68484375 2.82859375 -4.6171875 2.8046875 C-7.18806994 2.75675164 -7.18806994 2.75675164 -9 5 C-11.68839385 5.26991906 -14.29141936 5.08737357 -17 5 C-16.67 4.01 -16.34 3.02 -16 2 C-10.92679142 -0.03581546 -5.39500547 -0.2295747 0 0 Z " fill="#585858" transform="translate(520,1055)"/>
<path d="M0 0 C0.33 0.66 0.66 1.32 1 2 C-3.03523352 6.81123996 -7.04467233 11.13242719 -12 15 C-12.66 14.67 -13.32 14.34 -14 14 C-9.38 9.38 -4.76 4.76 0 0 Z " fill="#2C2C2C" transform="translate(651,905)"/>
<path d="M0 0 C3.375 -0.125 3.375 -0.125 7 0 C9 2 9 2 9.1953125 5.9140625 C9.18200376 7.48449351 9.15813602 9.05486221 9.125 10.625 C9.11597656 11.42679688 9.10695313 12.22859375 9.09765625 13.0546875 C9.07406223 15.03658523 9.03819065 17.01832981 9 19 C8.67 19 8.34 19 8 19 C8 13.72 8 8.44 8 3 C5.03 2.67 2.06 2.34 -1 2 C-0.67 1.34 -0.34 0.68 0 0 Z " fill="#3D3D3D" transform="translate(410,1122)"/>
<path d="M0 0 C0.66 0.33 1.32 0.66 2 1 C-0.64 3.64 -3.28 6.28 -6 9 C-6.99 8.67 -7.98 8.34 -9 8 C-7.37660195 6.29115995 -5.70680947 4.62553283 -4 3 C-3.34 3 -2.68 3 -2 3 C-2 2.34 -2 1.68 -2 1 C-1.34 0.67 -0.68 0.34 0 0 Z " fill="#2B2B2B" transform="translate(516,862)"/>
<path d="M0 0 C2.125 0.375 2.125 0.375 4 1 C4 1.66 4 2.32 4 3 C3.34 3 2.68 3 2 3 C1.67 4.32 1.34 5.64 1 7 C0.01 7 -0.98 7 -2 7 C-2.125 4.625 -2.125 4.625 -2 2 C-1.34 1.34 -0.68 0.68 0 0 Z " fill="#404040" transform="translate(360,1125)"/>
<path d="M0 0 C0.66 0.33 1.32 0.66 2 1 C1.51917969 1.35707031 1.03835938 1.71414063 0.54296875 2.08203125 C-1.68424838 4.85054672 -1.51394011 7.18159023 -1.6875 10.6875 C-1.75324219 11.86699219 -1.81898438 13.04648438 -1.88671875 14.26171875 C-1.92410156 15.16535156 -1.96148438 16.06898437 -2 17 C-2.33 17 -2.66 17 -3 17 C-3.08076963 14.54101345 -3.14037143 12.08466258 -3.1875 9.625 C-3.21263672 8.92632813 -3.23777344 8.22765625 -3.26367188 7.5078125 C-3.29296875 5.4765625 -3.29296875 5.4765625 -3 2 C-2.01 1.34 -1.02 0.68 0 0 Z " fill="#1E1E1E" transform="translate(549,1104)"/>
<path d="M0 0 C1.670625 0.061875 1.670625 0.061875 3.375 0.125 C3.045 0.785 2.715 1.445 2.375 2.125 C0.05343403 2.53229228 -2.2818787 2.86938677 -4.625 3.125 C-4.955 4.445 -5.285 5.765 -5.625 7.125 C-5.75 4.75 -5.75 4.75 -5.625 2.125 C-3.625 0.125 -3.625 0.125 0 0 Z " fill="#2E2E2E" transform="translate(462.625,1035.875)"/>
<path d="M0 0 C2.475 0.495 2.475 0.495 5 1 C4.67 2.65 4.34 4.3 4 6 C3.01 6 2.02 6 1 6 C0.67 4.02 0.34 2.04 0 0 Z " fill="#555555" transform="translate(561,1017)"/>
<path d="M0 0 C0.33 0.66 0.66 1.32 1 2 C-2.3 2.33 -5.6 2.66 -9 3 C-8.67 2.01 -8.34 1.02 -8 0 C-5.08447442 -1.20642438 -2.93446575 -1.11307322 0 0 Z " fill="#454545" transform="translate(499,965)"/>
<path d="M0 0 C-1.49097658 3.7952131 -3.75700849 5.61042731 -7 8 C-7.66 7.67 -8.32 7.34 -9 7 C-7.88121617 5.82737096 -6.75476949 4.66204862 -5.625 3.5 C-4.68527344 2.52546875 -4.68527344 2.52546875 -3.7265625 1.53125 C-2 0 -2 0 0 0 Z " fill="#333333" transform="translate(630,928)"/>
<path d="M0 0 C2.475 0.495 2.475 0.495 5 1 C4.67 2.65 4.34 4.3 4 6 C3.01 5.67 2.02 5.34 1 5 C0.67 3.35 0.34 1.7 0 0 Z " fill="#3E3E3E" transform="translate(534,1019)"/>
<path d="M0 0 C0.33 0.66 0.66 1.32 1 2 C1.66 2 2.32 2 3 2 C3 1.34 3 0.68 3 0 C3.66 0 4.32 0 5 0 C4.67 1.98 4.34 3.96 4 6 C3.01 5.67 2.02 5.34 1 5 C0.67 3.35 0.34 1.7 0 0 Z " fill="#2C2C2C" transform="translate(424,1036)"/>
<path d="M0 0 C0.99 0.33 1.98 0.66 3 1 C2.34 1 1.68 1 1 1 C0.9175 1.61875 0.835 2.2375 0.75 2.875 C0 5 0 5 -2.0625 6.25 C-3.0215625 6.62125 -3.0215625 6.62125 -4 7 C-2.92598892 4.08482708 -2.22189824 2.22189824 0 0 Z " fill="#202020" transform="translate(406,1022)"/>
<path d="M0 0 C0.7425 0.0825 1.485 0.165 2.25 0.25 C2.25 1.24 2.25 2.23 2.25 3.25 C1.5075 3.229375 0.765 3.20875 0 3.1875 C-2.45462279 3.24328688 -4.41109261 3.5569904 -6.75 4.25 C-3.42692308 0.31153846 -3.42692308 0.31153846 0 0 Z " fill="#4A4A4A" transform="translate(509.75,961.75)"/>
<path d="M0 0 C2.475 0.99 2.475 0.99 5 2 C4.67 3.65 4.34 5.3 4 7 C1.49962266 4.82575883 0.56371414 3.26954202 0 0 Z " fill="#3B3B3B" transform="translate(564,906)"/>
<path d="M0 0 C4.43458973 1.3937282 6.87378374 3.60582235 10 7 C5.56541027 5.6062718 3.12621626 3.39417765 0 0 Z " fill="#222222" transform="translate(666,862)"/>
<path d="M0 0 C0 0.66 0 1.32 0 2 C-2.64 2.99 -5.28 3.98 -8 5 C-7 2 -7 2 -5.125 0.8125 C-3 0 -3 0 0 0 Z " fill="#262626" transform="translate(644,1098)"/>
<path d="M0 0 C3 0 3 0 4.6875 1.3125 C6 3 6 3 6 6 C5.01 6 4.02 6 3 6 C2.01 4.02 1.02 2.04 0 0 Z " fill="#636363" transform="translate(511,1019)"/>
</svg>
